<?xml version="1.0" encoding="utf-8"?>
<!-- Generator: Adobe Illustrator 27.0.1, SVG Export Plug-In . SVG Version: 6.00 Build 0)  -->
<svg version="1.1" id="uuid-0bda1bac-776d-4b3d-b3df-9c1e7a845ce5"
	 xmlns="http://www.w3.org/2000/svg" xmlns:xlink="http://www.w3.org/1999/xlink" x="0px" y="0px" width="388px" height="545.3px"
	 viewBox="0 0 388 545.3" style="enable-background:new 0 0 388 545.3;" xml:space="preserve">
<style type="text/css">
	.st0{fill:none;stroke:#000000;stroke-miterlimit:10;}
	.st1{fill:none;stroke:#BBBDBF;stroke-miterlimit:10;}
	.st2{clip-path:url(#SVGID_00000059281407140286038870000011747168295771813780_);}
	.st3{fill:none;stroke:#231F20;stroke-miterlimit:10;}
	.st4{clip-path:url(#SVGID_00000060733752179354666030000003199479128946766506_);}
	.st5{fill:none;stroke:#D2232A;stroke-width:1.6;stroke-linecap:round;}
	.st6{fill:none;}
	.st7{fill:#D2232A;}
	.st8{clip-path:url(#SVGID_00000018915905612876628620000004418846240912399035_);}
	.st9{fill:none;stroke:#D2232A;stroke-width:1.6;stroke-linecap:round;stroke-linejoin:round;}
	.st10{clip-path:url(#SVGID_00000077314749349935809550000010018477172196545209_);}
	.st11{fill:none;stroke:#D2232A;stroke-width:1.71;stroke-linecap:round;}
	.st12{clip-path:url(#SVGID_00000075124526609056931410000014755910633606304431_);}
	.st13{fill:none;stroke:#D2232A;stroke-width:1.71;stroke-linecap:round;stroke-linejoin:round;}
</style>
<g>
	<line class="st0" x1="123.1" y1="397.5" x2="120.9" y2="400.4"/>
	<path class="st0" d="M34,357.1c-0.8-0.2-1.5-0.2-2.1-0.1c-0.6,0.1-1,0.3-1.2,0.7"/>
	<path class="st0" d="M129.2,409.1c0,0.4,0,0.9-0.1,1.3s-0.4,0.9-0.7,1.4s-0.7,0.8-1.2,1.1c-0.4,0.3-0.9,0.5-1.4,0.7"/>
	<polyline class="st0" points="109.3,404.1 111.9,410.9 112.3,411.1 	"/>
	<path class="st0" d="M105,389.3c0.9-0.2,1.8-0.5,2.6-1s1.5-1.1,2-1.8c0.5-0.7,0.9-1.5,1.1-2.3c0.2-0.8,0.2-1.6-0.1-2.4"/>
	<path class="st0" d="M111.2,405.2c-0.4,0.1-0.8,0-1.1-0.1"/>
	<path class="st0" d="M36.6,357.7c0.8,0.1,1.7,0.5,2.7,1"/>
	<path class="st0" d="M110.6,381.7l4.5,10.9c0.4-0.1,0.8-0.1,1.2,0.1"/>
	<line class="st0" x1="104.1" y1="390.6" x2="105" y2="389.3"/>
	<line class="st0" x1="120.2" y1="400.5" x2="119.8" y2="400.4"/>
	<path class="st0" d="M28.9,360.6c-0.2,0.3-0.3,0.7-0.2,1.2"/>
	<line class="st0" x1="84.9" y1="341.1" x2="84.9" y2="341.1"/>
	<line class="st0" x1="83.6" y1="337.9" x2="83.7" y2="337.8"/>
	<line class="st0" x1="106.4" y1="399.1" x2="106.4" y2="399.1"/>
	<line class="st0" x1="126.9" y1="396.5" x2="126.9" y2="396.5"/>
	<line class="st0" x1="89.6" y1="401.2" x2="89.7" y2="401.2"/>
	<line class="st0" x1="36.1" y1="361.4" x2="36.2" y2="361.3"/>
	<line class="st0" x1="36.2" y1="361.7" x2="38.1" y2="371"/>
	<path class="st0" d="M34.3,358.9c0-0.2,0-0.5,0-0.7c0.1-0.2,0.2-0.4,0.4-0.5c0.4-0.2,1.1-0.2,1.8-0.1"/>
	<path class="st0" d="M36.2,361.7c0-0.2,0-0.3,0-0.4"/>
	<line class="st0" x1="117.1" y1="397.3" x2="39.2" y2="358.6"/>
	<line class="st0" x1="116.8" y1="400.1" x2="38.6" y2="361.5"/>
	<line class="st0" x1="114.9" y1="402.6" x2="36.8" y2="364.4"/>
	<line class="st0" x1="113.3" y1="402.4" x2="36.9" y2="365"/>
	<line class="st0" x1="114.9" y1="402.6" x2="116.1" y2="402.5"/>
	<path class="st0" d="M127.3,401.4c1.1,2.4,1.7,5,2,7.6"/>
	<path class="st0" d="M125.8,413.6c-3.9,1.3-8.1,2.1-12.1,2.3"/>
	<path class="st0" d="M123.1,397.5c0.1-0.1,0.3-0.3,0.4-0.4c0.2-0.1,0.4-0.1,0.6-0.2s0.4,0,0.6,0.1c0.2,0.1,0.3,0.2,0.4,0.3"/>
	<path class="st0" d="M116.3,377.5c-0.1-0.1-0.2-0.2-0.4-0.3c-0.2-0.1-0.3-0.1-0.5-0.1c-0.2,0-0.4,0.1-0.5,0.1s-0.3,0.2-0.4,0.4"/>
	<path class="st0" d="M117.1,397.4c0.2-0.7,0.3-1.5,0.3-2.1c0-0.6-0.1-1.2-0.3-1.6"/>
	<path class="st0" d="M117.1,397.4c0.4,1.2,0.5,2.4,0.4,3.5c-0.1,1-0.5,1.9-1,2.6"/>
	<path class="st1" d="M88.1,308.8c-0.2,0-0.4,0.1-0.6,0.3c-0.2,0.2-0.2,0.4-0.2,0.6"/>
	<path class="st0" d="M116.5,403.5c-0.5,0.7-1.2,1.2-2.1,1.5s-2,0.4-3.2,0.2"/>
	<line class="st0" x1="118.8" y1="401.7" x2="117.1" y2="397.4"/>
	<path class="st0" d="M116.2,392.7c0.3,0.2,0.6,0.5,0.8,0.9"/>
	<path class="st0" d="M118.8,401.7c0.2,0.8,0.2,1.6,0,2.5s-0.6,1.7-1.1,2.4s-1.3,1.4-2.1,1.9c-0.8,0.5-1.8,0.9-2.7,1.1"/>
	<path class="st0" d="M116.4,403.5c-0.1-0.2-0.2-0.4-0.3-0.6"/>
	<line class="st0" x1="116.8" y1="403" x2="116.1" y2="402.9"/>
	<path class="st0" d="M109.3,400.4c-0.2,0.7-0.3,1.4-0.3,2.1c0,0.6,0.1,1.2,0.2,1.6"/>
	<path class="st0" d="M113.9,395.7c0.4-0.6,0.7-1.2,0.9-1.7c0.2-0.5,0.3-1,0.2-1.4"/>
	<line class="st0" x1="107.5" y1="399.5" x2="109.3" y2="404.1"/>
	<line class="st0" x1="89.2" y1="352.2" x2="89.2" y2="352.3"/>
	<path class="st0" d="M36.2,361.3c0.1-0.2,0.4-0.3,0.9-0.2c0.4,0,1,0.2,1.5,0.5"/>
	<polyline class="st0" points="30.5,371.2 32.4,368.2 36.2,368.1 	"/>
	<line class="st0" x1="30.6" y1="358.9" x2="32.4" y2="368.2"/>
	<line class="st0" x1="34.3" y1="358.9" x2="36.2" y2="368.1"/>
	<line class="st0" x1="114.9" y1="402.6" x2="116.8" y2="400.1"/>
	<line class="st0" x1="116.1" y1="402.5" x2="117.5" y2="400.7"/>
	<line class="st0" x1="116.1" y1="402.5" x2="116.9" y2="402.9"/>
	<path class="st0" d="M35.5,357.6c-0.5-0.2-1.1-0.3-1.5-0.4"/>
	<line class="st0" x1="36.2" y1="361.4" x2="36.1" y2="361.4"/>
	<line class="st0" x1="115.5" y1="402.6" x2="116.1" y2="402.9"/>
	<path class="st0" d="M30.8,357.7c-0.2,0.3-0.3,0.7-0.2,1.2"/>
	<line class="st0" x1="36.2" y1="368.1" x2="38.1" y2="371"/>
	<line class="st0" x1="116.8" y1="400.1" x2="117.1" y2="397.5"/>
	<line class="st0" x1="113.3" y1="402.4" x2="114.9" y2="402.6"/>
	<line class="st0" x1="32.4" y1="374" x2="30.5" y2="371.2"/>
	<line class="st0" x1="116.8" y1="400.1" x2="117.5" y2="400.6"/>
	<path class="st0" d="M110.1,405.1c-0.4-0.2-0.7-0.5-0.9-1"/>
	<path class="st0" d="M120.2,400.5c0.1,0,0.2,0.1,0.3,0c0.1,0,0.2-0.1,0.3-0.2"/>
	<line class="st0" x1="112.9" y1="409.6" x2="111.9" y2="410.9"/>
	<path class="st1" d="M87.3,311.3c0,0.1,0,0.2,0.1,0.3"/>
	<line class="st0" x1="30.5" y1="371.2" x2="28.7" y2="361.8"/>
	<line class="st0" x1="112.9" y1="409.6" x2="111.2" y2="405.2"/>
	<path class="st0" d="M125,397.3c0.9,1.3,1.7,2.7,2.3,4.1"/>
	<line class="st0" x1="112.4" y1="411.6" x2="112.2" y2="411.9"/>
	<line class="st0" x1="105" y1="389.3" x2="106" y2="391.8"/>
	<line class="st0" x1="36.2" y1="373.9" x2="32.4" y2="374"/>
	<line class="st0" x1="119.8" y1="400.4" x2="117" y2="393.7"/>
	<line class="st0" x1="104.1" y1="390.6" x2="104.2" y2="390.9"/>
	<path class="st0" d="M112.4,411.3c0-0.1-0.1-0.1-0.2-0.1"/>
	<line class="st0" x1="112.4" y1="411.3" x2="112.5" y2="411.3"/>
	<line class="st1" x1="87.2" y1="309.7" x2="87.3" y2="311.3"/>
	<line class="st0" x1="117" y1="393.5" x2="111.5" y2="380.4"/>
	<path class="st0" d="M118.6,381.5c-0.6-1.4-1.3-2.7-2.2-4"/>
	<line class="st0" x1="118.6" y1="381.5" x2="127.3" y2="401.4"/>
	<path class="st0" d="M111.9,380.6c0.1,0,0.2,0.1,0.3,0s0.2-0.1,0.3-0.2"/>
	<line class="st0" x1="34" y1="357.1" x2="36.6" y2="357.7"/>
	<line class="st0" x1="38.1" y1="371" x2="36.2" y2="373.9"/>
	<g>
		<line class="st1" x1="100.6" y1="307.7" x2="88.1" y2="308.8"/>
		<path class="st1" d="M182.2,464.2c0.1-0.8-0.1-1.7-0.4-2.4"/>
		<path class="st1" d="M179.6,496.3c-0.1-0.2-0.2-0.3-0.4-0.3c-0.2-0.1-0.4-0.1-0.7,0"/>
		<path class="st1" d="M181.7,461.8c-0.2-0.5-0.6-0.9-1-1.3c-0.4-0.4-1-0.7-1.6-1c-0.6-0.2-1.3-0.4-2-0.5c-0.7-0.1-1.4,0-2.1,0.1"/>
		<line class="st1" x1="154.6" y1="465.7" x2="128.9" y2="406.9"/>
		<path class="st1" d="M168.6,466c0.2,0.4,0.2,1,0.1,1.5c-0.2,0.6-0.6,1.1-1,1.5"/>
		<path class="st1" d="M179.7,480.2c0.3,0,0.6-0.2,0.9-0.4c0.1-0.1,0.2-0.2,0.3-0.4s0.1-0.3,0.1-0.4"/>
		<line class="st1" x1="62.3" y1="370.1" x2="58" y2="354.6"/>
		<line class="st1" x1="104.8" y1="491.2" x2="71.9" y2="382.1"/>
		<path class="st1" d="M134.9,497c-0.2-0.7-0.4-1.5-0.2-2.4c0.1-0.4,0.2-0.9,0.4-1.3s0.4-0.9,0.7-1.3c0.3-0.4,0.6-0.9,1-1.3
			c0.4-0.4,0.8-0.8,1.3-1.1c0.9-0.7,1.9-1.2,2.9-1.6c1-0.4,2.1-0.7,3.2-0.8c0.6,0,1.1-0.1,1.7,0s1.1,0.1,1.6,0.2
			c0.5,0.1,1,0.3,1.4,0.5s0.8,0.5,1.2,0.7c0.7,0.6,1.1,1.2,1.4,1.9c0.4,0.9,0.4,1.9,0.2,3c-0.2,1.1-0.8,2.1-1.6,3
			c-0.8,0.9-1.9,1.8-3.1,2.4c-1.2,0.7-2.6,1.1-3.9,1.3"/>
		<path class="st1" d="M153.6,516.2c-0.3,0-0.6,0.2-0.9,0.4c-0.2,0.2-0.4,0.5-0.4,0.7"/>
		<line class="st1" x1="168.6" y1="507.2" x2="157" y2="499.9"/>
		<path class="st1" d="M165.5,464.7c0.6-0.1,1.3,0,1.9,0.2s1,0.6,1.2,1"/>
		<path class="st1" d="M59.6,311.5c-0.6,0.1-1.3,0.2-1.9,0.5c-0.3,0.1-0.6,0.3-0.9,0.5c-0.3,0.2-0.5,0.5-0.8,0.7
			c-0.2,0.3-0.4,0.5-0.6,0.8c-0.2,0.3-0.3,0.6-0.4,0.9c-0.2,0.6-0.3,1.2-0.2,1.8"/>
		<path class="st1" d="M179.6,496.7c0-0.1,0-0.2-0.1-0.3"/>
		<line class="st1" x1="87.1" y1="324.2" x2="78.7" y2="325.1"/>
		<path class="st1" d="M154.5,481.1c-0.5,0.4-1.2,0.8-1.8,0.9"/>
		<line class="st1" x1="132.3" y1="484.5" x2="119.4" y2="476.5"/>
		<path class="st1" d="M131.8,469.8c0.1,0,0.3-0.1,0.5-0.2c0.2-0.1,0.3-0.2,0.4-0.3c0.1-0.1,0.2-0.3,0.3-0.4s0.1-0.3,0.1-0.4"/>
		<line class="st1" x1="133.2" y1="466.5" x2="133" y2="465.9"/>
		<path class="st1" d="M108.7,491.4c0.3,0,0.7-0.2,0.9-0.4c0.1-0.1,0.2-0.2,0.3-0.4s0.1-0.3,0.1-0.4"/>
		<line class="st1" x1="115.8" y1="479.7" x2="128.9" y2="487.8"/>
		<line class="st1" x1="128.8" y1="504.5" x2="116.3" y2="515.9"/>
		<path class="st1" d="M171.1,516.8c0.8-0.1,1.7-0.4,2.6-0.8c0.4-0.2,0.9-0.4,1.3-0.7s0.8-0.6,1.2-0.9c0.4-0.3,0.7-0.7,1-1
			c0.3-0.3,0.5-0.7,0.7-1.1c0.4-0.7,0.6-1.4,0.6-2.1"/>
		<line class="st1" x1="132.6" y1="520.7" x2="128.8" y2="509.5"/>
		<line class="st1" x1="121.8" y1="471.3" x2="131.8" y2="469.8"/>
		<line class="st1" x1="155.8" y1="466.2" x2="165.5" y2="464.7"/>
		<line class="st1" x1="154.6" y1="463.2" x2="154.5" y2="465.3"/>
		<polyline class="st1" points="73.2,310.8 83.1,336.3 88.6,350.7 91.6,358.3 94.6,366.3 104.1,390.8 		"/>
		<line class="st1" x1="176.6" y1="472.3" x2="176.1" y2="479.8"/>
		<line class="st1" x1="156.4" y1="498.7" x2="157" y2="484.7"/>
		<line class="st1" x1="109.1" y1="507.3" x2="106.6" y2="507.7"/>
		<line class="st1" x1="129.6" y1="489" x2="129.5" y2="503.1"/>
		<line class="st1" x1="113.2" y1="526.7" x2="131.3" y2="523.6"/>
		<path class="st1" d="M132.1,506.5c0.4-0.4,1.1-0.7,1.8-0.8"/>
		<polyline class="st1" points="171.9,442.3 175.1,448.6 178.4,455.1 181.7,461.8 		"/>
		<line class="st1" x1="104.3" y1="476" x2="104.8" y2="491.1"/>
		<path class="st1" d="M104.3,476c0-0.7,0.1-1.5,0.5-2.4c0.2-0.4,0.4-0.8,0.7-1.2c0.3-0.4,0.6-0.8,1-1.2c0.4-0.4,0.8-0.7,1.2-1
			s0.9-0.6,1.4-0.8c1-0.5,2-0.8,2.9-0.9"/>
		<line class="st1" x1="131.9" y1="465.6" x2="112.2" y2="468.6"/>
		<line class="st1" x1="175.1" y1="459.1" x2="155.9" y2="462"/>
		<line class="st1" x1="176.4" y1="471.2" x2="176.4" y2="471.3"/>
		<line class="st1" x1="168.6" y1="465.9" x2="168.6" y2="466"/>
		<line class="st1" x1="129.5" y1="488.4" x2="129.5" y2="488.5"/>
		<path class="st1" d="M132.6,520.7c0-0.1,0-0.1,0-0.2"/>
		<line class="st1" x1="128.8" y1="509.5" x2="132.6" y2="520.5"/>
		<path class="st1" d="M166,511c0.1,0.3,0.2,0.7,0.1,1.1c-0.1,0.4-0.3,0.8-0.6,1.2c-0.3,0.3-0.7,0.7-1.2,0.9s-1,0.4-1.5,0.5"/>
		<path class="st1" d="M156.4,499.3c-0.1-0.2-0.1-0.4-0.1-0.6"/>
		<path class="st1" d="M176.4,471.3c0.1,0.3,0.2,0.6,0.2,1"/>
		<path class="st1" d="M131.3,523.6c0.3,0,0.6-0.2,0.9-0.4c0.1-0.1,0.2-0.2,0.3-0.3s0.1-0.2,0.1-0.3"/>
		<path class="st1" d="M154.6,465.7c0.1,0.2,0.2,0.3,0.4,0.4c0.2,0.1,0.5,0.1,0.7,0.1"/>
		<path class="st1" d="M129.5,488.5c0.1,0.2,0.1,0.3,0.1,0.5"/>
		<path class="st1" d="M110.6,515.6c0-0.2-0.1-0.3-0.1-0.5"/>
		<path class="st1" d="M110.4,508c0-0.1,0-0.1,0-0.2"/>
		<path class="st1" d="M105.7,522.5c0,0.3,0.1,0.6,0.1,0.9"/>
		<path class="st1" d="M122.1,521.6c-0.3,0.1-0.7,0.1-1.1,0s-0.7-0.1-1-0.2s-0.6-0.3-0.8-0.5s-0.3-0.4-0.4-0.7"/>
		<path class="st1" d="M151.9,502.7c0.6-0.1,1.3,0,1.7,0.3"/>
		<path class="st1" d="M153.6,503l11.7,7.2c0.3,0.2,0.5,0.4,0.7,0.7"/>
		<path class="st1" d="M176.1,496.3c-0.3,0-0.6,0.2-0.9,0.4c-0.1,0.1-0.2,0.2-0.3,0.4c-0.1,0.1-0.1,0.2-0.1,0.4"/>
		<path class="st1" d="M174.3,504.5c0,0.5-0.2,1-0.6,1.5c-0.4,0.5-0.9,0.9-1.5,1.2c-0.6,0.3-1.2,0.4-1.9,0.5c-0.6,0-1.2-0.1-1.6-0.4
			"/>
		<path class="st1" d="M157,499.9c-0.3-0.2-0.5-0.4-0.6-0.7"/>
		<path class="st1" d="M157,484.7c0-0.5,0.3-1.1,0.8-1.5"/>
		<path class="st1" d="M176.1,479.8c0,0.1,0,0.2,0.1,0.3"/>
		<line class="st1" x1="153.5" y1="519.8" x2="171.1" y2="516.8"/>
		<path class="st1" d="M154.5,465.3c0,0.1,0,0.2,0.1,0.3"/>
		<path class="st1" d="M134.1,484.8c-0.7,0.1-1.4,0-1.8-0.3"/>
		<path class="st1" d="M133.2,466.5c0-0.1,0-0.2-0.1-0.3"/>
		<path class="st1" d="M109.8,482.6c0-0.5,0.2-1.1,0.6-1.6c0.4-0.5,1-1,1.6-1.3c0.6-0.3,1.3-0.5,2.1-0.5s1.4,0.2,1.8,0.5"/>
		<path class="st1" d="M128.9,487.8c0.3,0.2,0.5,0.4,0.6,0.6"/>
		<path class="st1" d="M57.7,341.9c-0.2,0-0.4,0.1-0.6,0.3s-0.2,0.4-0.2,0.6"/>
		<path class="st1" d="M129.5,503.1c0,0.5-0.3,1-0.7,1.5"/>
		<path class="st1" d="M116.3,515.9c-0.4,0.4-1,0.7-1.6,0.9c-0.6,0.2-1.2,0.3-1.8,0.3c-0.6,0-1.1-0.2-1.5-0.5s-0.7-0.7-0.8-1.1"/>
		<path class="st1" d="M143,500.4c-0.9,0.1-1.8,0.2-2.6,0.1s-1.7-0.3-2.5-0.6c-0.8-0.3-1.4-0.8-1.9-1.3c-0.5-0.5-0.9-1.1-1.1-1.7"/>
		<line class="st1" x1="174.8" y1="497.5" x2="174.3" y2="504.5"/>
		<line class="st1" x1="152.4" y1="517.3" x2="152.3" y2="519.1"/>
		<line class="st1" x1="59.4" y1="341.8" x2="57.7" y2="341.9"/>
		<line class="st1" x1="131.4" y1="520" x2="122.1" y2="521.6"/>
		<line class="st1" x1="105.3" y1="508.9" x2="105.7" y2="522.5"/>
		<line class="st1" x1="110.5" y1="515.1" x2="110.4" y2="508"/>
		<line class="st1" x1="106.4" y1="399.1" x2="131.9" y2="465.6"/>
		<line class="st1" x1="106.1" y1="491.8" x2="108.7" y2="491.4"/>
		<line class="st1" x1="178.6" y1="510.2" x2="179.6" y2="496.7"/>
		<line class="st1" x1="155.9" y1="462" x2="87.2" y2="309.7"/>
		<polyline class="st1" points="132.2,363.6 150.3,399.6 160.9,420.5 		"/>
		<line class="st1" x1="177.2" y1="480.6" x2="179.7" y2="480.2"/>
		<path class="st1" d="M73.2,310.8c-0.1-0.1-0.2-0.3-0.3-0.4c-0.2-0.1-0.3-0.1-0.5-0.1"/>
		<line class="st1" x1="160.9" y1="420.5" x2="166.4" y2="431.4"/>
		<line class="st1" x1="162.8" y1="514.7" x2="153.6" y2="516.2"/>
		<line class="st1" x1="166.4" y1="431.4" x2="171.9" y2="442.3"/>
		<line class="st1" x1="178.5" y1="495.9" x2="176.1" y2="496.3"/>
		<line class="st1" x1="181" y1="479" x2="182.2" y2="464.2"/>
		<path class="st1" d="M155.9,462c-0.3,0-0.7,0.2-0.9,0.5c-0.1,0.1-0.2,0.3-0.3,0.4s-0.1,0.3-0.1,0.4"/>
		<path class="st1" d="M105.2,310.1c-0.2-0.4-0.4-0.8-0.8-1.1s-0.7-0.6-1.1-0.8s-0.9-0.4-1.4-0.5c-0.5-0.1-0.9-0.1-1.4-0.1"/>
		<path class="st1" d="M104.8,491.1c0,0.1,0,0.1,0,0.2"/>
		<line class="st1" x1="176.1" y1="480.2" x2="171.7" y2="470.7"/>
		<path class="st1" d="M119.4,476.5c-0.4-0.3-0.8-0.7-0.9-1.2"/>
		<path class="st1" d="M110.3,507.7c-0.1-0.2-0.2-0.3-0.5-0.4c-0.2-0.1-0.5-0.1-0.7,0"/>
		<line class="st1" x1="56.9" y1="342.8" x2="57.8" y2="353.8"/>
		<path class="st1" d="M132.5,520.4c-0.1-0.2-0.2-0.3-0.4-0.4c-0.2-0.1-0.5-0.1-0.7,0"/>
		<path class="st1" d="M176.1,480.2c0.1,0.2,0.2,0.3,0.4,0.4s0.4,0.1,0.7,0.1"/>
		<line class="st1" x1="165.9" y1="510.9" x2="166" y2="511"/>
		<line class="st1" x1="116" y1="377.3" x2="87.4" y2="311.6"/>
		<path class="st1" d="M133.1,466.1c-0.1-0.2-0.3-0.3-0.5-0.4c-0.2-0.1-0.5-0.1-0.7-0.1"/>
		<polyline class="st1" points="107.4,399.5 109.1,403.9 117.6,425.9 122.1,437.5 125.2,445.6 127.8,452.2 130.4,459.1 133.1,466.2 
					"/>
		<path class="st1" d="M55.8,328.6c0,0,0,0.1,0,0.1"/>
		<path class="st1" d="M152.3,519.1c0,0.1,0,0.2,0,0.2l-6-15.7"/>
		<path class="st1" d="M104.8,491.2c0.1,0.2,0.2,0.4,0.5,0.5s0.6,0.1,0.8,0.1"/>
		<line class="st1" x1="69.3" y1="373.6" x2="55.8" y2="328.7"/>
		<path class="st1" d="M57.8,353.8c0,0.3,0.1,0.5,0.1,0.8"/>
		<line class="st1" x1="119.7" y1="517.8" x2="132.1" y2="506.5"/>
		<line class="st1" x1="157.8" y1="483.2" x2="170.9" y2="471.2"/>
		<path class="st1" d="M152.4,519.4c0.1,0.2,0.2,0.3,0.4,0.4c0.2,0.1,0.5,0.1,0.7,0"/>
		<path class="st1" d="M106.6,507.7c-0.3,0-0.7,0.2-0.9,0.4c-0.1,0.1-0.2,0.2-0.3,0.4c-0.1,0.1-0.1,0.2-0.1,0.4"/>
		<line class="st1" x1="105.5" y1="491.8" x2="110.4" y2="508"/>
		<line class="st1" x1="54.8" y1="316.8" x2="55.8" y2="328.6"/>
		<line class="st1" x1="105.8" y1="523.5" x2="64.8" y2="378.6"/>
		<line class="st1" x1="132.6" y1="522.5" x2="132.6" y2="520.7"/>
		<path class="st1" d="M118.8,520.2c-0.1-0.4-0.1-0.8,0.1-1.2c0.2-0.4,0.5-0.8,0.8-1.2"/>
		<path class="st1" d="M105.8,523.5c0.2,0.5,0.4,1.1,0.9,1.6s1,0.9,1.7,1.2s1.5,0.5,2.3,0.6c0.8,0.1,1.7,0,2.4-0.1"/>
		<line class="st1" x1="72.4" y1="310.3" x2="59.6" y2="311.5"/>
		<line class="st1" x1="91.2" y1="320.5" x2="88.3" y2="323.7"/>
		<line class="st1" x1="168.9" y1="473.1" x2="179.6" y2="496.4"/>
		<path class="st1" d="M59.8,341.8c-0.1,0-0.3,0-0.4,0"/>
		<line class="st1" x1="110" y1="490.2" x2="109.8" y2="482.6"/>
		<path class="st1" d="M87.1,324.2c0.4,0,0.9-0.3,1.2-0.6"/>
		<polyline class="st1" points="105.2,310.1 117.7,334.8 124.7,348.7 128.4,356 132.2,363.6 		"/>
		<line class="st1" x1="152.7" y1="481.9" x2="134.1" y2="484.8"/>
		<line class="st1" x1="133.2" y1="468.6" x2="133.2" y2="466.5"/>
		<path class="st1" d="M170.9,471.2c0.4-0.4,0.9-0.7,1.5-0.9c0.6-0.2,1.1-0.3,1.7-0.3c0.5,0,1,0.1,1.4,0.3c0.4,0.2,0.7,0.5,0.9,0.9"
			/>
		<line class="st1" x1="167.7" y1="469" x2="154.5" y2="481.1"/>
		<line class="st1" x1="133.9" y1="505.7" x2="151.9" y2="502.7"/>
		<path class="st1" d="M118.4,475.3c-0.1-0.4-0.2-0.8,0-1.2s0.3-0.9,0.7-1.2s0.8-0.7,1.2-1s1-0.4,1.6-0.5"/>
		<line class="st1" x1="105.5" y1="491.8" x2="110.3" y2="507.8"/>
	</g>
	<path class="st0" d="M112.4,411.6c0.1-0.1,0.1-0.2,0.1-0.4"/>
	<line class="st0" x1="110.6" y1="381.7" x2="111.5" y2="380.4"/>
	<line class="st0" x1="119.8" y1="400.4" x2="118.8" y2="401.7"/>
	<line class="st0" x1="28.9" y1="360.6" x2="30.8" y2="357.7"/>
	<line class="st0" x1="111.5" y1="380.4" x2="111.9" y2="380.6"/>
	<line class="st0" x1="112.5" y1="380.5" x2="114.5" y2="377.7"/>
</g>
<g>
	<defs>
		<rect id="SVGID_1_" y="3.6" width="205.7" height="231.6"/>
	</defs>
	<clipPath id="SVGID_00000134965643557139041670000008378909386047837581_">
		<use xlink:href="#SVGID_1_"  style="overflow:visible;"/>
	</clipPath>
	<g style="clip-path:url(#SVGID_00000134965643557139041670000008378909386047837581_);">
		<g>
			<g>
				<path class="st1" d="M43.1,114.7c-0.4-0.6-0.7-1.5-0.8-2.1c0-0.7,0.2-1.2,0.6-1.5"/>
				<path class="st1" d="M53.2,128.8c-0.4-0.2-0.9-0.6-1.2-1.1"/>
				<path class="st1" d="M66.7,134.1c-0.3,0.2-0.7,0.2-1.2,0"/>
			</g>
			<g>
				<path class="st1" d="M84.8,144.7c-0.1,0.1-0.4,0.1-0.6,0"/>
				<path class="st1" d="M85,178.3c-0.4,0.3-1,0.5-1.6,0.5s-1.3-0.1-2-0.4"/>
				<path class="st1" d="M76.7,171.9c-0.4,0.3-1,0.3-1.6,0"/>
				<path class="st1" d="M37.4,124c-0.1,0.1-0.4,0.1-0.6,0"/>
				<path class="st1" d="M51.5,113.8c-0.1,0.1-0.4,0.1-0.6,0"/>
			</g>
			<line class="st1" x1="77.2" y1="131.9" x2="69.1" y2="137.7"/>
			<g>
				<path class="st1" d="M86.2,175.2c0.1,1.4-0.4,2.6-1.3,3.2"/>
				<path class="st1" d="M68.8,172.8c-0.2-0.1-0.4-0.3-0.6-0.5s-0.3-0.6-0.3-0.8"/>
				<path class="st1" d="M67.8,169.6c0-0.2,0.1-0.4,0.2-0.5"/>
			</g>
			<line class="st1" x1="53" y1="148.9" x2="45.2" y2="154.4"/>
			<g>
				<path class="st1" d="M53.2,162.2c0.2,0.1,0.4,0.3,0.6,0.5c0.2,0.2,0.3,0.6,0.3,0.8"/>
				<path class="st1" d="M54.2,165.3c0,0.2-0.1,0.4-0.2,0.5"/>
				<path class="st1" d="M35.2,139c0-0.2,0.1-0.4,0.2-0.6"/>
			</g>
			<line class="st1" x1="38.5" y1="140.5" x2="38.9" y2="147.5"/>
			<line class="st1" x1="42.8" y1="151" x2="50.7" y2="145.4"/>
			<g>
				<path class="st1" d="M37.3,116.4c0-0.7,0.2-1.3,0.6-1.5"/>
				<path class="st1" d="M35.2,123.3c-0.2-0.1-0.4-0.3-0.6-0.5s-0.3-0.6-0.3-0.8"/>
				<path class="st1" d="M33.6,108.2c0-0.7,0.1-1.5,0.3-2.1c0.2-0.6,0.6-1.1,1.1-1.4"/>
			</g>
			<line class="st1" x1="65.8" y1="116.7" x2="321.4" y2="-56.7"/>
			<line class="st1" x1="68" y1="156" x2="54" y2="165.8"/>
			<path class="st1" d="M82.5,144c-0.2-0.1-0.4-0.3-0.6-0.5c-0.2-0.2-0.3-0.6-0.3-0.8"/>
			<line class="st1" x1="76.5" y1="168.4" x2="67.6" y2="155.4"/>
			<line class="st1" x1="66.4" y1="154.3" x2="54.2" y2="148.9"/>
			<line class="st1" x1="66.7" y1="134.1" x2="74.8" y2="128.4"/>
			<line class="st1" x1="34.3" y1="122" x2="33.6" y2="108.2"/>
			<line class="st1" x1="36.9" y1="124" x2="35.2" y2="123.3"/>
			<path class="st1" d="M51.1,144.3c0,0.5-0.1,0.9-0.4,1.1"/>
			<path class="st1" d="M37.7,139.2c0.2,0.1,0.4,0.3,0.6,0.5s0.3,0.6,0.3,0.8"/>
			<line class="st1" x1="36" y1="152.6" x2="35.2" y2="139"/>
			<path class="st1" d="M41.2,160.3c-0.6-0.3-1.2-0.7-1.8-1.2c-0.6-0.5-1.2-1.2-1.7-2c-0.5-0.8-0.9-1.6-1.2-2.4
				c-0.3-0.8-0.4-1.5-0.5-2.2"/>
			<line class="st1" x1="53.4" y1="165.8" x2="41.2" y2="160.3"/>
			<line class="st1" x1="54.1" y1="163.5" x2="54.2" y2="165.3"/>
			<line class="st1" x1="46.9" y1="159.3" x2="53.2" y2="162.2"/>
			<line class="st1" x1="67.9" y1="171.5" x2="67.8" y2="169.6"/>
			<line class="st1" x1="81.3" y1="178.4" x2="68.8" y2="172.8"/>
			<path class="st1" d="M82.2,159.9c0-0.2,0.1-0.4,0.2-0.5"/>
			<g>
				<path class="st1" d="M85,144.1c0,0.2-0.1,0.4-0.2,0.6"/>
				<path class="st1" d="M65.5,117.3c0-0.2,0.1-0.5,0.2-0.6"/>
			</g>
			<g>
				<path class="st1" d="M35,104.8c0.8-0.6,2.1-0.6,3.3-0.1"/>
				<path class="st1" d="M54,165.8c-0.1,0.1-0.4,0.1-0.6,0"/>
			</g>
			<line class="st1" x1="342.5" y1="-8.3" x2="85" y2="178.3"/>
			<line class="st1" x1="35.5" y1="138.5" x2="49.6" y2="128.9"/>
			<path class="st1" d="M65.6,144.1c0,0.8-0.1,1.6-0.3,2.2c-0.3,0.6-0.7,1.2-1.2,1.5"/>
			<line class="st1" x1="53.2" y1="128.8" x2="65.5" y2="134.2"/>
			<line class="st1" x1="43.1" y1="114.7" x2="52" y2="127.7"/>
			<g>
				<path class="st3" d="M67.6,114.6c-0.1,0.1-0.2,0.1-0.2,0.2"/>
				<path class="st3" d="M91.8,98.2c0.1-0.1,0.2-0.1,0.2-0.2"/>
			</g>
			<line class="st3" x1="77.7" y1="107.7" x2="77.7" y2="107.7"/>
			<line class="st3" x1="74.5" y1="109.9" x2="74.5" y2="109.9"/>
			<line class="st3" x1="74.1" y1="110.2" x2="74.1" y2="110.1"/>
			<line class="st1" x1="37.3" y1="116.4" x2="37.6" y2="123.5"/>
			<line class="st1" x1="73" y1="123.3" x2="66.5" y2="120.5"/>
			<path class="st1" d="M73,123.3c0.4,0.2,0.9,0.5,1.3,1c0.4,0.4,0.7,1,0.9,1.5c0.2,0.5,0.3,1.1,0.2,1.5c-0.1,0.5-0.3,0.8-0.6,1"/>
			<line class="st1" x1="49.9" y1="129.3" x2="41" y2="116.3"/>
			<path class="st1" d="M49.9,129.3c0.3,0.5,0.5,1.1,0.6,1.5"/>
			<path class="st1" d="M76.5,168.4c0.4,0.6,0.7,1.4,0.7,2s-0.2,1.2-0.6,1.5"/>
			<line class="st1" x1="82.5" y1="166.9" x2="82.2" y2="159.9"/>
			<line class="st1" x1="84.2" y1="144.7" x2="82.5" y2="144"/>
			<line class="st1" x1="65.6" y1="119.2" x2="65.5" y2="117.3"/>
			<path class="st1" d="M66.5,120.5c-0.2-0.1-0.4-0.3-0.6-0.5c-0.2-0.2-0.3-0.6-0.3-0.8"/>
			<g>
				<path class="st1" d="M37.9,114.9c0.3-0.2,0.9-0.3,1.5,0c0.6,0.3,1.2,0.8,1.6,1.4"/>
				<path class="st1" d="M68.1,169.1c0.1-0.1,0.4-0.1,0.6,0"/>
			</g>
			<line class="st1" x1="82.5" y1="159.3" x2="343.2" y2="-26.2"/>
			<path class="st1" d="M84.8,160.1c0.2,0.1,0.4,0.3,0.6,0.5c0.2,0.2,0.3,0.6,0.3,0.8"/>
			<line class="st1" x1="69.8" y1="153.9" x2="78.7" y2="167"/>
			<path class="st1" d="M69.8,153.9c-0.3-0.5-0.5-1.1-0.6-1.5"/>
			<line class="st1" x1="68.7" y1="138.8" x2="69.2" y2="152.4"/>
			<line class="st1" x1="68.1" y1="169.1" x2="74.1" y2="164.8"/>
			<path class="st1" d="M68.7,138.8c0-0.5,0.1-0.9,0.4-1.1"/>
			<line class="st1" x1="81.6" y1="142.6" x2="81.3" y2="135.5"/>
			<path class="st1" d="M55.6,135.3c0.7-0.5,1.7-0.7,2.8-0.4c1.1,0.3,2.3,0.9,3.3,1.8c1,0.9,2,2.1,2.7,3.5c0.7,1.3,1.1,2.8,1.1,3.9"
				/>
			<path class="st1" d="M64.1,147.8c-0.5,0.4-1.1,0.5-1.8,0.6c-0.7,0-1.4-0.2-2.2-0.5c-1.5-0.6-3.1-2-4.1-3.6
				c-1.1-1.6-1.8-3.6-1.9-5.2c0-0.8,0.1-1.6,0.3-2.2c0.3-0.6,0.7-1.2,1.2-1.5"/>
			<path class="st1" d="M43,111.1c0.4-0.3,1-0.3,1.5,0"/>
			<path class="st1" d="M82,168.4c-0.4,0.3-1,0.3-1.6,0c-0.6-0.2-1.2-0.8-1.7-1.5"/>
			<path class="st1" d="M65.8,116.8c0.2-0.1,0.4-0.1,0.6,0"/>
			<line class="st3" x1="68.4" y1="114.9" x2="67.6" y2="114.6"/>
			<line class="st3" x1="87.1" y1="101.4" x2="87.1" y2="101.4"/>
			<g>
				<path class="st3" d="M79.5,98.2c2,1,4,2,5.3,2.5"/>
				<path class="st3" d="M58.7,111.2c0,0.1,0,0.2-0.1,0.2"/>
			</g>
			<line class="st3" x1="80.9" y1="105.6" x2="67.3" y2="114.8"/>
			<path class="st3" d="M91.8,98.2l-4.8,3.2c0,0,0,0,0,0"/>
			<line class="st3" x1="83.2" y1="94.3" x2="75.4" y2="99.6"/>
			<line class="st3" x1="67.6" y1="114.6" x2="81.3" y2="105.2"/>
			<path class="st3" d="M84.5,94.8c0.9,1.5,2.3,2.8,3.7,3.4c0.7,0.3,1.3,0.5,2,0.5c0.6,0,1.2-0.2,1.7-0.5"/>
			<line class="st3" x1="83.2" y1="94.3" x2="84.5" y2="94.9"/>
			<path class="st3" d="M84.8,100.7c1.2,0.5,2.1,0.8,2.3,0.7"/>
			<line class="st3" x1="60" y1="111.3" x2="73.8" y2="102.1"/>
			<line class="st3" x1="75.4" y1="99.6" x2="58.7" y2="110.8"/>
			<g>
				<path class="st3" d="M87.1,101.4c0,0.4-0.1,0.7-0.3,1.1"/>
				<path class="st3" d="M67.7,125c-0.4,0.3-0.8,0.5-1.2,0.7"/>
				<path class="st3" d="M58.6,111.4c-0.1,0.1-0.2,0.1-0.2,0"/>
			</g>
			<line class="st3" x1="75.6" y1="106.2" x2="75.4" y2="100"/>
			<path class="st3" d="M73.8,102.1c-0.1-0.9,0.6-1.8,1.6-2.5"/>
			<line class="st3" x1="60" y1="111.3" x2="58.7" y2="110.8"/>
			<polyline class="st3" points="58.7,110.8 58.7,111.2 58.4,111.4 			"/>
			<line class="st3" x1="58.4" y1="111.4" x2="56.4" y2="110.5"/>
			<g>
				<path class="st3" d="M79.5,98.2c-1.6,0.2-3.1,0.7-4.2,1.4"/>
				<path class="st3" d="M67.3,114.8c-0.5,0.3-1,0.5-1.7,0.5c-0.6,0-1.3-0.2-2-0.5c-1.3-0.6-2.8-1.9-3.7-3.4"/>
				<path class="st3" d="M66.5,125.8c-0.5,0.3-1.3,0.3-2.2,0c-0.8-0.4-1.7-1.1-2.2-1.9"/>
				<path class="st3" d="M81.3,105.2c0.7-0.1,1.4-0.2,2-0.4"/>
			</g>
			<line class="st3" x1="80.9" y1="94.1" x2="82.5" y2="94.8"/>
			<line class="st3" x1="92.9" y1="98.4" x2="92" y2="98"/>
			<line class="st3" x1="71.3" y1="122.6" x2="67.7" y2="125"/>
			<line class="st3" x1="84.9" y1="103.8" x2="84.8" y2="100.7"/>
			<path class="st3" d="M70.7,122.3c-0.9,1.1-1.9,2-3,2.7"/>
			<line class="st3" x1="84.5" y1="94.8" x2="79.5" y2="98.2"/>
			<path class="st3" d="M62.1,123.9c-2.9-3.8-5.3-8.1-7.1-12.4"/>
			<line class="st3" x1="92" y1="98" x2="87.1" y2="101.4"/>
			<path class="st3" d="M80.9,105.6c-0.9,0.6-1.8,1-2.6,1.1s-1.5,0.1-2.1-0.2c-0.6-0.3-1.2-0.8-1.7-1.5s-0.7-1.8-0.8-2.9"/>
			<line class="st3" x1="75.4" y1="99.6" x2="75.4" y2="100"/>
			<line class="st1" x1="50.9" y1="113.8" x2="44.5" y2="111.1"/>
			<line class="st1" x1="51.1" y1="144.3" x2="50.4" y2="130.8"/>
			<line class="st1" x1="45.2" y1="154.4" x2="53.3" y2="148.8"/>
			<path class="st1" d="M53,148.9c0.3-0.2,0.7-0.2,1.2,0"/>
			<path class="st1" d="M66.4,154.3c0.4,0.2,0.9,0.6,1.2,1.1"/>
			<line class="st1" x1="69.1" y1="137.7" x2="77.6" y2="131.8"/>
			<path class="st1" d="M77.2,131.9c0.3-0.2,0.7-0.3,1.2-0.2c0.4,0.1,0.9,0.4,1.3,0.7c0.4,0.4,0.8,0.9,1.1,1.4s0.4,1.1,0.4,1.6"/>
			<line class="st1" x1="66.3" y1="116.8" x2="79" y2="122.2"/>
			<line class="st1" x1="310.8" y1="-60.2" x2="51.5" y2="113.8"/>
			<polyline class="st1" points="35,104.8 79.9,75.1 123.9,46.2 305.1,-73.2 			"/>
			<path class="st1" d="M35.5,138.5c0.1-0.1,0.3-0.1,0.6,0"/>
			<path class="st1" d="M82.5,159.3c0.1-0.1,0.4-0.1,0.6,0"/>
			<line class="st1" x1="342.3" y1="-36.5" x2="84.8" y2="144.7"/>
			<line class="st1" x1="43.5" y1="119.9" x2="37.4" y2="124"/>
			<path class="st1" d="M79,122.2c0.6,0.3,1.3,0.7,1.9,1.2s1.3,1.2,1.8,2c0.5,0.8,0.9,1.6,1.2,2.4c0.3,0.8,0.4,1.6,0.4,2.3"/>
			<line class="st1" x1="84.4" y1="130.1" x2="85" y2="144.1"/>
			<path class="st1" d="M82.5,166.9c0,0.6-0.2,1.2-0.6,1.4"/>
			<line class="st1" x1="83.1" y1="159.3" x2="84.8" y2="160.1"/>
			<line class="st1" x1="85.7" y1="161.4" x2="86.2" y2="175.2"/>
			<line class="st1" x1="68.7" y1="169.1" x2="75.1" y2="172"/>
			<path class="st1" d="M46.9,159.3c-0.4-0.2-0.9-0.5-1.3-1c-0.4-0.4-0.7-1-0.9-1.5c-0.2-0.5-0.3-1-0.2-1.5c0.1-0.4,0.3-0.8,0.5-1"
				/>
			<line class="st1" x1="36" y1="138.5" x2="37.7" y2="139.2"/>
			<path class="st1" d="M42.8,151c-0.3,0.2-0.7,0.3-1.1,0.2c-0.4-0.1-0.9-0.4-1.3-0.7c-0.4-0.3-0.8-0.8-1-1.4s-0.4-1.1-0.5-1.5"/>
			<path class="st1" d="M37.6,123.5c0,0.2-0.1,0.5-0.2,0.6"/>
			<line class="st1" x1="38.3" y1="104.7" x2="50.7" y2="110"/>
			<path class="st1" d="M50.7,110c0.2,0.1,0.4,0.3,0.6,0.5c0.2,0.2,0.3,0.6,0.3,0.8"/>
			<line class="st1" x1="51.6" y1="111.4" x2="51.7" y2="113.2"/>
			<path class="st1" d="M51.7,113.2c0,0.2-0.1,0.5-0.2,0.6"/>
		</g>
	</g>
</g>
<g>
	<g>
		<defs>
			<rect id="SVGID_00000179605152944391245210000007701345002557308843_" x="118.5" y="81" width="221.7" height="205.7"/>
		</defs>
		<clipPath id="SVGID_00000081619105392972411590000001719999860064473746_">
			<use xlink:href="#SVGID_00000179605152944391245210000007701345002557308843_"  style="overflow:visible;"/>
		</clipPath>
		<g style="clip-path:url(#SVGID_00000081619105392972411590000001719999860064473746_);">
			<g>
				<path class="st1" d="M180.1,182.8l-0.8-1.2c-0.2-0.4-0.5-0.8-0.6-1.2s-0.2-0.9-0.2-1.3c0-0.4,0.1-0.8,0.2-1.1s0.4-0.5,0.6-0.7
					c0.4-0.2,0.8-0.2,1.3,0l6.6,2.4c0.2,0.1,0.4,0.1,0.5,0c0.2-0.1,0.4-0.4,0.3-0.7l-0.1-2.2c0-0.2-0.1-0.6-0.3-0.9
					s-0.4-0.5-0.6-0.6"/>
				<path class="st1" d="M387.5,102.1c0.1-0.6,0-1.3-0.1-1.9c-0.2-0.7-0.5-1.4-0.9-2c-0.4-0.6-1-1.1-1.5-1.5s-1.2-0.6-1.8-0.7
					c0.6,0.1,1.2,0.4,1.8,0.7c0.6,0.4,1.1,0.9,1.5,1.5s0.7,1.3,0.9,2C387.5,100.8,387.5,101.5,387.5,102.1z"/>
				<path class="st1" d="M205,240.1c-0.2,0.1-0.3,0.3-0.3,0.6C204.7,240.5,204.8,240.2,205,240.1z"/>
				<line class="st1" x1="366.7" y1="126.4" x2="366.8" y2="126.5"/>
				<path class="st1" d="M385.8,115.1c0.2-0.1,0.3-0.3,0.3-0.6C386.1,114.7,386,115,385.8,115.1z"/>
				<path class="st1" d="M384.6,129.6c0-0.2,0-0.4-0.2-0.6c-0.1-0.2-0.4-0.3-0.5-0.4c0.2,0,0.4,0.2,0.5,0.4
					C384.6,129.2,384.6,129.4,384.6,129.6z"/>
				<path class="st1" d="M181.9,229.4c-0.4-0.4-0.6-0.9-0.8-1.4c-0.2-0.5-0.3-1.1-0.2-1.6c0.1-0.5,0.3-0.9,0.6-1.1l8-6.5
					c0,0,0.1-0.1,0.1-0.1l0,0c0.3-0.1,0.7-0.1,1,0l12.7,5.2c0.5,0.2,0.9,0.6,1.3,1.1l9.2,14c0.5,0.7,0.8,1.6,0.8,2.3
					c0,0.4-0.1,0.7-0.2,1c-0.1,0.3-0.3,0.5-0.5,0.6c-0.4,0.3-1,0.3-1.6,0l-6.7-2.9c-0.2-0.1-0.4-0.1-0.6,0"/>
				<path class="st1" d="M357,90.3l-169.8,85.1l-12.9-4.7c-1-0.4-2-0.3-2.7,0c-0.6,0.3-1.2,0.9-1.6,1.7c-0.4,0.8-0.5,1.8-0.4,2.8
					c-0.1-1,0.1-2,0.4-2.8s0.9-1.4,1.6-1.7"/>
				<path class="st1" d="M357.2,93.5c0.2-0.1,0.4-0.4,0.4-0.6C357.6,93.2,357.4,93.4,357.2,93.5z"/>
				<path class="st1" d="M172.3,223.9c0,0.6,0.2,1.4,0.4,2.2s0.6,1.6,1.1,2.3c0.5,0.8,1,1.4,1.6,2s1.2,1,1.8,1.3
					c-0.6-0.3-1.2-0.7-1.8-1.3c-0.6-0.6-1.1-1.2-1.6-2s-0.8-1.6-1.1-2.3C172.5,225.3,172.3,224.6,172.3,223.9z"/>
				<path class="st1" d="M182.8,231.2c-0.2-0.2-0.5-0.4-0.7-0.5c-0.1,0-0.2-0.1-0.2-0.1"/>
				<path class="st1" d="M171.8,208.6c-0.2,0.1-0.3,0.4-0.3,0.7C171.4,209,171.6,208.7,171.8,208.6z"/>
				<polygon class="st1" points="171.6,170.8 180.7,166.4 189.6,162.1 198.4,157.9 189.6,162.1 180.7,166.4 				"/>
				<path class="st1" d="M215.9,149.4l9.9-4.7L215.9,149.4z"/>
				<path class="st1" d="M187,202.1l0.5,11.9c0,0.5-0.1,1-0.4,1.2l-8,6.5l-0.2,0.1c-0.3,0.2-0.7,0.2-1.1,0.1s-0.9-0.4-1.2-0.8
					c-0.4-0.4-0.7-0.9-1-1.4s-0.4-1.1-0.4-1.6l-0.4-7.6c0-0.2-0.1-0.5-0.3-0.8s-0.4-0.5-0.6-0.5l-1.7-0.7c-0.2-0.1-0.4-0.1-0.5,0"/>
				<path class="st1" d="M204.8,242.7c0,0.2,0.1,0.5,0.3,0.8c0.2,0.3,0.4,0.5,0.6,0.6c-0.2-0.1-0.4-0.3-0.6-0.6
					C204.9,243.3,204.8,243,204.8,242.7z"/>
				<path class="st1" d="M381.8,128.3L220.6,228.7c-0.2,0.1-0.3,0.4-0.3,0.6l0.1,7.9c0,0.4-0.1,0.7-0.2,1c-0.1,0.3-0.3,0.5-0.6,0.7
					c-0.2,0.1-0.5,0.2-0.8,0.2s-0.6-0.1-1-0.2s-0.7-0.4-1-0.6c-0.3-0.3-0.6-0.6-0.8-0.9l-9.3-14c-0.3-0.5-0.6-1.1-0.6-1.7l-0.4-15.2
					c0-0.5,0.2-1,0.5-1.3l9-7.2c0.1,0,0.1-0.1,0.2-0.1l0.1,0c0.3-0.2,0.8-0.2,1.3-0.1c0.5,0.1,1,0.4,1.4,0.8
					c0.4,0.4,0.8,0.9,1.1,1.5c0.3,0.6,0.4,1.2,0.4,1.7l0.1,8.2c0,0.2,0.1,0.6,0.3,0.9c0.2,0.3,0.4,0.5,0.7,0.6l1.9,0.7
					c0.2,0.1,0.4,0.1,0.6,0c0.2-0.1,0.3-0.4,0.3-0.7l-0.2-16.2c0-0.8-0.1-1.7-0.4-2.6c-0.3-0.9-0.7-1.9-1.3-2.7
					c-0.6-0.9-1.2-1.6-2-2.2c-0.7-0.6-1.4-1-2.1-1.2l-13.9-5c-0.2-0.1-0.4-0.1-0.5,0c-0.2,0.1-0.4,0.4-0.4,0.8l0.1,2.2
					c0,0.2,0.1,0.6,0.3,0.9c0.2,0.3,0.4,0.5,0.7,0.6l7,2.6c0.5,0.2,1,0.5,1.4,1c0.4,0.5,0.8,1.1,1,1.7c0.2,0.6,0.3,1.2,0.2,1.8
					c-0.1,0.5-0.3,1-0.7,1.2l-8.9,7.3l0,0l-0.2,0.1c-0.3,0.2-0.7,0.2-1.1,0l-8.1-3.1"/>
				<path class="st1" d="M198.4,157.9l17.6-8.5L198.4,157.9z"/>
				<path class="st1" d="M222.7,249.8c-0.5,0.3-1.1,0.5-1.7,0.5c-0.7,0-1.4-0.1-2.1-0.5c0.7,0.3,1.4,0.5,2.1,0.5
					C221.6,250.3,222.2,250.1,222.7,249.8c0.5-0.3,0.9-0.8,1.2-1.5c0.3-0.6,0.4-1.4,0.4-2.2l-0.2-15.3c0-0.2-0.1-0.6-0.3-0.9
					s-0.4-0.5-0.7-0.6l-1.9-0.8c-0.2-0.1-0.4-0.1-0.6,0"/>
				<polygon class="st1" points="225.8,144.7 246.1,134.9 283.3,117 246.1,134.9 				"/>
				<path class="st1" d="M173.5,186.2l-0.1-2.1c0-0.4,0-0.9,0.2-1.2c0.1-0.3,0.4-0.6,0.7-0.7c0.2-0.1,0.4-0.1,0.7-0.1
					c0.2,0,0.5,0.1,0.8,0.2s0.6,0.3,0.8,0.6s0.5,0.5,0.7,0.8l0.4,0.6"/>
				<path class="st1" d="M192.8,203.2c0.5-0.3,1.2-0.4,1.9-0.4c0.4,0,0.8,0.1,1.2,0.2c0.4,0.1,0.8,0.3,1.2,0.5
					c0.8,0.4,1.6,1.1,2.3,1.8c0.7,0.7,1.3,1.5,1.7,2.4c0.5,0.8,0.9,1.8,1.1,2.8c0.1,0.5,0.2,1,0.3,1.5c0.1,0.5,0.1,1,0.1,1.5
					c0,0.5-0.1,0.9-0.2,1.3s-0.2,0.8-0.4,1.1c-0.4,0.6-0.8,1.1-1.4,1.4c-0.5,0.3-1.1,0.5-1.8,0.5s-1.3-0.1-2-0.4
					c-0.6-0.2-1.2-0.6-1.8-1c-0.6-0.5-1.2-1-1.7-1.7s-1-1.4-1.4-2.1c-0.4-0.7-0.7-1.5-0.9-2.2c-0.2-0.7-0.4-1.5-0.4-2.2
					c-0.1-0.7,0-1.5,0.1-2.1s0.4-1.2,0.7-1.7c0.3-0.5,0.7-0.8,1.2-1.1L192.8,203.2L192.8,203.2z"/>
				<path class="st1" d="M382.3,128.2c-0.2-0.1-0.4,0-0.5,0.1C381.9,128.2,382.1,128.1,382.3,128.2z"/>
				<path class="st1" d="M345.8,87.9c-0.9-0.2-1.8-0.1-2.5,0.3C344,87.8,345,87.7,345.8,87.9z"/>
				<line class="st1" x1="242.4" y1="137.8" x2="242.4" y2="137.8"/>
				<polygon class="st1" points="283.3,117 291.4,113.1 299.1,109.4 314.6,101.9 343.3,88.1 314.6,101.9 299.1,109.4 291.4,113.1 
									"/>
				<path class="st1" d="M357.7,91.3c0-0.2,0-0.4-0.2-0.6c-0.1-0.2-0.3-0.3-0.5-0.4c0.2,0,0.4,0.2,0.5,0.4
					C357.7,90.8,357.7,91.1,357.7,91.3z"/>
				<path class="st1" d="M369.7,124.7c0,0.3,0.2,0.6,0.3,0.9C369.9,125.3,369.8,125,369.7,124.7z"/>
				<path class="st1" d="M371.3,93.4c-0.2,0-0.3,0-0.5,0.1C371,93.4,371.2,93.4,371.3,93.4z"/>
				<path class="st1" d="M381.6,144.5c0.5-0.3,0.9-0.8,1.2-1.3c0.3-0.5,0.5-1.1,0.6-1.8c-0.1,0.6-0.2,1.2-0.6,1.8
					S382.1,144.2,381.6,144.5z"/>
				<g>
					<path class="st3" d="M184.4,184.1c2.2,1.3,4.4,2.3,5.8,2.8c1,0.4,1.9,0.6,2.2,0.4c0.1,0,0.1-0.1,0.1-0.1"/>
					<path class="st3" d="M199.6,195.6L199.6,195.6l0,0.1c-0.1,0.3-0.3,0.6-0.5,0.8c-0.2,0.2-0.4,0.4-0.6,0.6
						c-0.2,0.1-0.4,0.3-0.5,0.4c-0.5,0.3-1,0.4-1.5,0.4c-0.3,0-0.7,0-1-0.1"/>
					<path class="st3" d="M179.8,193.8c-0.2,0.2-0.5,0.5-0.8,0.6c-0.5,0.2-1.1,0.4-1.7,0.4c-0.6,0-1.4-0.2-2.1-0.6s-1.4-0.9-2-1.5
						s-1.1-1.3-1.6-2"/>
					<path class="st3" d="M182.7,192.2c-1,0.3-1.9,0.2-2.7,0c-0.6-0.2-1.2-0.7-1.7-1.4c-0.4-0.7-0.7-1.7-0.8-2.8c0-0.1,0-0.3,0-0.4
						c0-0.4,0.2-0.8,0.6-1.2c0.4-0.4,0.9-0.8,1.4-1.1c0.6-0.3,1.3-0.6,2.1-0.8c0.8-0.2,1.7-0.4,2.6-0.4l15.4-7.9l-1.4-0.5l-18.8,9.6
						l-9.4,4.8l1.4,0.5l6-3.1"/>
					<path class="st3" d="M197.2,196.9l-4.9,2.7c-0.1,0.1-0.3,0.1-0.5,0.1c-0.3,0-0.6-0.1-0.9-0.2"/>
					<path class="st3" d="M174.1,205.1c0.3,0.4,0.7,0.8,1.1,1.1s0.8,0.6,1.2,0.8s0.9,0.3,1.2,0.3c0.4,0,0.7-0.1,1-0.2l4.7-2.5
						c0.1,0,0.1-0.1,0.2-0.1l0.2-0.2c0.7-0.4,1.5-1,2.3-1.5c0.8-0.6,1.6-1.1,2.4-1.7c0.4-0.3,0.9-0.6,1.3-0.9s0.8-0.5,1.2-0.7
						s0.7-0.3,0.9-0.5c0.3-0.1,0.5-0.2,0.6-0.2c0.3,0,0.4,0,0.4,0.1s-0.1,0.3-0.4,0.5l-0.1,0.1"/>
					<path class="st3" d="M178.8,207c1.4-1,2.7-2.2,3.9-3.6c1.1-1.4,2.1-3.1,2.9-5c0.1-0.3,0.1-0.7-0.1-1.1
						c-0.2-0.4-0.5-0.7-0.8-0.8l-3-1.2c-0.1,0-0.2-0.1-0.3-0.2c-0.1-0.1-0.1-0.3-0.1-0.4l0-0.5l9.3-4.9"/>
					<path class="st3" d="M174.1,205.1c-3.1-4.3-5.8-9.2-7.7-14.1C168.2,195.9,170.9,200.8,174.1,205.1z"/>
					<line class="st3" x1="195.9" y1="175.6" x2="197.4" y2="176.2"/>
					<path class="st3" d="M210.5,188.2c-1.2,1.5-2.6,2.7-4,3.7c-0.1,0-0.1,0.1-0.2,0.1l-6.7,3.7h0c0,0-0.1,0-0.2,0.1
						c-0.1,0.1-0.3,0.1-0.5,0.2c-0.2,0.1-0.4,0.2-0.6,0.4l-0.6,0.4"/>
					<path class="st3" d="M181.1,194.3l-1.4-0.5l6-3.1c0.9-0.1,1.8-0.2,2.6-0.4c0.8-0.2,1.6-0.5,2.2-0.8l12.5-6.6"/>
					<path class="st3" d="M166.5,189.7c-0.1,0.1-0.3,0.2-0.3,0.5s0,0.5,0.1,0.8c-0.1-0.2-0.1-0.5-0.1-0.8S166.4,189.8,166.5,189.7
						c0.1-0.1,0.3-0.1,0.5,0l2.9,1.1c0.1,0,0.1,0,0.2,0c0.1,0,0.1-0.2,0.1-0.3l0-0.4"/>
					<path class="st3" d="M190.5,189.4c0.6-0.3,1.1-0.7,1.4-1.1c0.3-0.4,0.5-0.8,0.5-1.2l10.7-5.6"/>
					<path class="st3" d="M199.7,176.2c0.4,0.6,0.8,1.1,1.3,1.7c0.5,0.5,1,1,1.6,1.3c0.6,0.4,1.2,0.6,1.8,0.8
						c0.6,0.1,1.1,0.1,1.6,0.1"/>
					<path class="st3" d="M166.5,189.7l20.2-10.2L166.5,189.7z"/>
				</g>
				<path class="st1" d="M357.6,92.9l0.1-1.7L357.6,92.9z"/>
				<path class="st1" d="M204.8,240.7l0.1,2L204.8,240.7z"/>
				<path class="st1" d="M381.6,144.5L222.7,249.8L381.6,144.5z"/>
				<path class="st1" d="M383.1,96l-11.8-2.6L383.1,96z"/>
				<polyline class="st1" points="192.4,187.1 192.4,187.3 192.3,187.3 				"/>
				<path class="st1" d="M171.5,209.3l0.8,14.6L171.5,209.3z"/>
				<path class="st1" d="M357.2,93.5l-169.3,86.1L357.2,93.5z"/>
				<path class="st1" d="M171.8,208.6l3.8-2L171.8,208.6z"/>
				<path class="st1" d="M375,132.5l-4.9-6.9L375,132.5z"/>
				<path class="st1" d="M205,240.1l6.8-4.3L205,240.1z"/>
				<path class="st1" d="M353.9,102.4l-3.7-5.2L353.9,102.4z"/>
				<path class="st1" d="M206.3,227.6l-12.1,7.4L206.3,227.6z"/>
				<path class="st1" d="M386.2,114.5l1.3-12.4L386.2,114.5z"/>
				<path class="st1" d="M357,90.3l-11.2-2.4L357,90.3z"/>
				<path class="st1" d="M383.4,141.5l1.2-11.9L383.4,141.5z"/>
				<path class="st1" d="M169.6,175.2l0.7,12.6L169.6,175.2L169.6,175.2z"/>
				<path class="st1" d="M385.8,115.1l-162.4,97L385.8,115.1L385.8,115.1z"/>
				<g>
					<path class="st0" d="M168.8,261.5l-2.9-1.5c-0.1,0-0.2,0-0.2,0c-0.1,0-0.1,0.1-0.1,0.2l0,0.4"/>
					<path class="st0" d="M157.4,243.8c0.3-0.1,0.6-0.2,1-0.2s0.8,0.1,1.2,0.4c0.4,0.2,0.9,0.5,1.3,0.9c0.4,0.4,0.8,0.8,1.1,1.2
						c3.1,4.4,5.8,9.4,7.6,14.4c0.1,0.2,0.1,0.5,0.1,0.7c0,0.2-0.1,0.4-0.2,0.4c-0.1,0.1-0.4,0.1-0.6,0c0.2,0.1,0.4,0.1,0.6,0"/>
					<path class="st0" d="M171.6,235.4c0.3-0.2,0.7-0.3,1.1-0.3c0.5-0.1,1.1,0,1.5,0.2c0.5,0.2,0.9,0.6,1.2,1.1
						c0.3,0.4,0.5,0.8,0.6,1.3c0.3,1,0.5,1.9,0.5,2.9v0l0,0.7h0"/>
					<path class="st0" d="M176.8,232.5l0.1-0.1c0.1-0.3,0.3-0.5,0.4-0.7c0.2-0.3,0.5-0.5,0.8-0.7l0.1-0.1h0l0.2-0.1
						c0.5-0.3,1.1-0.5,1.7-0.5c0.6,0,1.1,0.1,1.7,0.3c-0.5-0.2-1.1-0.3-1.7-0.3c-0.6,0-1.1,0.2-1.7,0.5l-0.2,0.1h0l-0.1,0.1
						c-0.3,0.2-0.5,0.5-0.8,0.7c-0.2,0.2-0.3,0.5-0.4,0.7L176.8,232.5L176.8,232.5z"/>
					<path class="st0" d="M164.1,240.3c0.4-0.2,0.8-0.5,1.2-0.7c0.4-0.3,0.9-0.6,1.3-0.9c0.8-0.5,1.6-1.1,2.4-1.6s1.6-1,2.3-1.4
						l0.1-0.1l-0.1,0.1c-0.7,0.4-1.5,0.9-2.3,1.4c-0.8,0.5-1.6,1.1-2.4,1.6c-0.4,0.3-0.9,0.6-1.3,0.9S164.4,240.1,164.1,240.3z"/>
					<path class="st0" d="M190.5,229.1c-0.3-0.4-0.7-0.8-1.1-1.2c-0.4-0.4-0.8-0.6-1.3-0.8c-0.4-0.2-0.9-0.3-1.2-0.3
						c-0.4,0-0.7,0.1-1,0.3l-0.1,0l-5.2,3"/>
					<path class="st0" d="M156.8,255.8c0.5-0.3,1.1-0.4,1.7-0.4c0.6,0,1.4,0.3,2,0.7c0.7,0.4,1.4,0.9,2,1.6c0.6,0.7,1.2,1.5,1.7,2.3
						c-0.5-0.8-1.1-1.6-1.7-2.3s-1.4-1.2-2-1.6c-0.7-0.4-1.4-0.6-2-0.7C157.8,255.4,157.2,255.6,156.8,255.8z"/>
					<path class="st0" d="M163,240.9l0.1-0.1c0.3-0.1,0.6-0.3,1-0.5c-0.4,0.2-0.7,0.4-1,0.5L163,240.9z"/>
					<path class="st0" d="M176.8,232.5c0,0,0.1,0.1,0.2,0.1c0.1,0,0.3,0.1,0.5,0.2c0.2,0.1,0.4,0.2,0.7,0.3s0.6,0.3,0.9,0.4
						c0.3,0.2,0.6,0.3,0.9,0.5c0.3,0.2,0.8,0.4,1.1,0.5c0.1,0,0.3,0.1,0.4,0.1c0.2,0,0.4,0.1,0.7,0c0.2,0,0.5-0.1,0.6-0.2
						c0.2-0.1,0.4-0.3,0.5-0.5c0.1-0.2,0.2-0.4,0.2-0.6c0-0.1,0-0.2,0-0.4c0-0.3-0.1-0.7-0.2-1c-0.1-0.3-0.3-0.5-0.5-0.7
						c-0.2-0.2-0.4-0.4-0.7-0.6c-0.1-0.1-0.3-0.2-0.4-0.2"/>
					<path class="st0" d="M156.4,256.1c0.1-0.1,0.2-0.2,0.4-0.3"/>
					<path class="st0" d="M155.1,255c0-0.1-0.1-0.2-0.1-0.3c-0.1-0.1-0.2-0.2-0.2-0.2c0.1,0,0.2,0.1,0.2,0.2S155,254.9,155.1,255z"
						/>
					<path class="st0" d="M197.6,243.9c0.1-0.1,0.2-0.2,0.2-0.4c0-0.2,0-0.4-0.1-0.6c0.1,0.2,0.1,0.5,0.1,0.6
						C197.9,243.7,197.8,243.8,197.6,243.9z"/>
					<path class="st0" d="M176.6,240.6c0,0.1,0,0.3,0,0.4c0,0.9-0.1,1.8-0.5,2.5c-0.2,0.4-0.4,0.8-0.6,1.1s-0.5,0.6-0.9,0.8
						s-0.7,0.3-1.1,0.4c-0.4,0.1-0.8,0.1-1.2,0c-0.8-0.1-1.7-0.4-2.5-0.8c-1-0.5-2-1.1-3-1.9c-0.4-0.3-0.9-0.6-1.3-0.9
						c-0.6-0.4-1.1-0.7-1.6-0.9s-0.9-0.4-1.2-0.4c-0.2,0-0.4,0-0.6,0l0,0"/>
					<path class="st0" d="M151,251.2c1.4-3.2,3.5-5.8,6.2-7.4C154.5,245.4,152.4,248,151,251.2z"/>
					<path class="st0" d="M176.8,232.4C176.8,232.4,176.8,232.4,176.8,232.4C176.8,232.4,176.8,232.4,176.8,232.4z"/>
					<path class="st0" d="M197.8,242.8c-1.7-4.7-4.3-9.5-7.3-13.7C193.5,233.3,196.1,238.1,197.8,242.8z"/>
					<path class="st0" d="M151.9,253.1c-0.3-0.1-0.6-0.5-0.8-0.8c-0.2-0.4-0.2-0.8-0.1-1c-0.1,0.2-0.1,0.7,0.1,1
						C151.3,252.6,151.6,252.9,151.9,253.1z"/>
					<path class="st0" d="M164.2,260l1.4,0.7L164.2,260z"/>
					<path class="st0" d="M157.2,243.9l4.9-2.9L157.2,243.9z"/>
					<path class="st0" d="M155.1,255.5l1.3,0.7L155.1,255.5z"/>
					<path class="st0" d="M155.1,255l0,0.4L155.1,255z"/>
					<path class="st0" d="M197.6,243.9l-28.2,17.6L197.6,243.9z"/>
					<path class="st0" d="M151.9,253.1l2.8,1.4L151.9,253.1z"/>
					<path class="st0" d="M156.4,256.1l0.8-0.5L156.4,256.1z"/>
					<path class="st0" d="M166.3,260.2l-0.7,0.5L166.3,260.2z"/>
					<path class="st0" d="M171.4,235.6l5.5-3.2L171.4,235.6z"/>
				</g>
				<path class="st1" d="M383.9,128.6l-1.6-0.4L383.9,128.6z"/>
				<path class="st1" d="M205.7,244.1l13.2,5.7L205.7,244.1z"/>
				<polyline class="st1" points="203.1,181.5 207.8,179.1 207.8,179.1 213.9,175.8 224.2,170.5 234.2,165.2 247.4,158.3 
					257.1,153.2 276.9,142.8 313.1,123.8 320.7,119.8 328.2,115.9 343.1,108 370.9,93.5 				"/>
			</g>
		</g>
	</g>
	<line class="st5" x1="139.4" y1="214.3" x2="170.4" y2="199.3"/>
	<rect x="125.1" y="197.6" class="st6" width="47.6" height="72.5"/>
	<polygon class="st7" points="166.3,204.4 171.8,198.4 163.6,199.1 	"/>
	<g>
		<defs>
			<rect id="SVGID_00000050622398406082429180000009984492438870805164_" x="125.1" y="197.6" width="47.6" height="72.5"/>
		</defs>
		<clipPath id="SVGID_00000138531117213721129920000005915355300914427280_">
			<use xlink:href="#SVGID_00000050622398406082429180000009984492438870805164_"  style="overflow:visible;"/>
		</clipPath>
		<g style="clip-path:url(#SVGID_00000138531117213721129920000005915355300914427280_);">
			<polygon class="st9" points="166.3,204.4 171.8,198.4 163.6,199.1 			"/>
			<line class="st5" x1="125.8" y1="269.3" x2="156.8" y2="254.3"/>
		</g>
	</g>
	<polygon class="st7" points="152.7,259.4 158.2,253.5 150,254.1 	"/>
	<polygon class="st9" points="152.7,259.4 158.2,253.5 150,254.1 	"/>
</g>
<g>
	<defs>
		<rect id="SVGID_00000042013979396158423010000015623587208738023860_" x="41" y="341.9" width="55.7" height="18.1"/>
	</defs>
	<clipPath id="SVGID_00000152235401123993464170000013979439558737718667_">
		<use xlink:href="#SVGID_00000042013979396158423010000015623587208738023860_"  style="overflow:visible;"/>
	</clipPath>
	<g style="clip-path:url(#SVGID_00000152235401123993464170000013979439558737718667_);">
		<path class="st11" d="M41.8,359.1c0,0,16.2-21.7,53.8-11.5"/>
	</g>
</g>
<polygon class="st7" points="87.5,349.4 95.8,347.8 88.7,342.7 "/>
<g>
	<defs>
		<rect id="SVGID_00000134242931796094779240000008440880015855547799_" x="41" y="341.9" width="55.7" height="18.1"/>
	</defs>
	<clipPath id="SVGID_00000048476345456078047870000006240076063646943651_">
		<use xlink:href="#SVGID_00000134242931796094779240000008440880015855547799_"  style="overflow:visible;"/>
	</clipPath>
	<g style="clip-path:url(#SVGID_00000048476345456078047870000006240076063646943651_);">
		<polygon class="st13" points="87.5,349.4 95.8,347.8 88.7,342.7 		"/>
	</g>
</g>
</svg>
