<?xml version="1.0" encoding="utf-8"?>
<!-- Generator: Adobe Illustrator 26.2.1, SVG Export Plug-In . SVG Version: 6.00 Build 0)  -->
<svg version="1.1" id="Layer_1" xmlns="http://www.w3.org/2000/svg" xmlns:xlink="http://www.w3.org/1999/xlink" x="0px" y="0px"
	 viewBox="0 0 377.7 62.3" style="enable-background:new 0 0 377.7 62.3;" xml:space="preserve">
<style type="text/css">
	.st0{fill:#041939;}
</style>
<g>
	<rect y="0" class="st0" width="17" height="17"/>
	<rect x="22.7" y="0" class="st0" width="17" height="17"/>
	<rect x="45.3" y="0" class="st0" width="17" height="17"/>
	<rect y="22.7" class="st0" width="17" height="17"/>
	<rect x="22.7" y="22.7" class="st0" width="17" height="39.6"/>
	<rect x="45.3" y="22.7" class="st0" width="17" height="17"/>
	<rect y="45.3" class="st0" width="17" height="17"/>
	<rect x="45.3" y="45.3" class="st0" width="17" height="17"/>
	<g>
		<polygon class="st0" points="182.1,34 188.7,34 185.4,23.8 		"/>
		<path class="st0" d="M68,0v62.3h309.7V0C377.7,0,68,0,68,0z M98.9,22.7l-4.1,0v17l4.1,0v5.7H85v-5.7h4.1v-17H85V17h13.9V22.7z
			 M128.3,29.3v8.2v7.8h-5.1l-11.1-17.7v17.7h-5.6v-8.4V22.8V17h5.6l10.6,16.9l0-16.8h5.7L128.3,29.3L128.3,29.3z M166.4,45.3h-5.6
			V27.6l-7.5,12h-2.9l-7.6-12v17.7h-5.7V17h5.7l9,14.3l9-14.3h5.6L166.4,45.3L166.4,45.3z M192.3,45.3l-1.8-5.6h-10.2l-1.8,5.6h-5.6
			L182,17h6.9l9.1,28.3L192.3,45.3L192.3,45.3z M224.6,26.7h-5.6V24l-1.3-1.3h-7.9l-1.3,1.3v14.4l1.3,1.3h7.9l1.3-1.3v-2.8l5.6,0
			v5.1l-4.6,4.6h-12.6l-4.6-4.6V21.6l4.6-4.6h12.5l4.6,4.6L224.6,26.7L224.6,26.7z M253.8,45.3h-5.6V34h-10.5v11.3H232V17h5.6v11.4
			h10.5V17h5.6V45.3z M275.3,22.7l-4.1,0v17l4.1,0v5.7h-13.9v-5.7h4.1v-17h-4.1V17h13.9V22.7z M304.7,29.3v8.2v7.8h-5.1l-11.1-17.7
			v17.7h-5.6v-8.4V22.8V17h5.6l10.6,16.9l0-16.8h5.7L304.7,29.3L304.7,29.3z M333.3,22.7h-14.1v5.7h11.2V34h-11.2v5.6h14.1v5.6
			h-19.7V17h19.7V22.7z M360.7,40.7l-4.6,4.6h-16.6v-5.6h14.2l1.3-1.3v-1.8l-12.2-5.2l-3.3-3.3v-6.4l4.6-4.6h13.7v5.7h-11.4
			l-1.3,1.3v1.7l12.4,5.3l3.2,3.2L360.7,40.7L360.7,40.7z"/>
	</g>
</g>
</svg>
