  0
SECTION
  2
HEADER
  9
$ACADVER
  1
AC1012
  9
$DWGCODEPAGE
  3
ansi_1252
  9
$INSBASE
 10
0.0
 20
0.0
 30
0.0
  9
$EXTMIN
 10
1.000000000000000E+20
 20
1.000000000000000E+20
 30
1.000000000000000E+20
  9
$EXTMAX
 10
-1.000000000000000E+20
 20
-1.000000000000000E+20
 30
-1.000000000000000E+20
  9
$LIMMIN
 10
0.0
 20
0.0
  9
$LIMMAX
 10
12.0
 20
9.0
  9
$ORTHOMODE
 70
     0
  9
$REGENMODE
 70
     1
  9
$FILLMODE
 70
     1
  9
$QTEXTMODE
 70
     0
  9
$MIRRTEXT
 70
     1
  9
$DRAGMODE
 70
     2
  9
$LTSCALE
 40
1.0
  9
$OSMODE
 70
    37
  9
$ATTMODE
 70
     1
  9
$TEXTSIZE
 40
0.2
  9
$TRACEWID
 40
0.05
  9
$TEXTSTYLE
  7
STANDARD
  9
$CLAYER
  8
0
  9
$CELTYPE
  6
BYLAYER
  9
$CECOLOR
 62
   256
  9
$CELTSCALE
 40
1.0
  9
$DELOBJ
 70
     1
  9
$DISPSILH
 70
     0
  9
$DIMSCALE
 40
1.0
  9
$DIMASZ
 40
0.18
  9
$DIMEXO
 40
0.0625
  9
$DIMDLI
 40
0.38
  9
$DIMRND
 40
0.0
  9
$DIMDLE
 40
0.0
  9
$DIMEXE
 40
0.18
  9
$DIMTP
 40
0.0
  9
$DIMTM
 40
0.0
  9
$DIMTXT
 40
0.18
  9
$DIMCEN
 40
0.09
  9
$DIMTSZ
 40
0.0
  9
$DIMTOL
 70
     0
  9
$DIMLIM
 70
     0
  9
$DIMTIH
 70
     1
  9
$DIMTOH
 70
     1
  9
$DIMSE1
 70
     0
  9
$DIMSE2
 70
     0
  9
$DIMTAD
 70
     0
  9
$DIMZIN
 70
     0
  9
$DIMBLK
  1

  9
$DIMASO
 70
     1
  9
$DIMSHO
 70
     1
  9
$DIMPOST
  1

  9
$DIMAPOST
  1

  9
$DIMALT
 70
     0
  9
$DIMALTD
 70
     2
  9
$DIMALTF
 40
25.4
  9
$DIMLFAC
 40
1.0
  9
$DIMTOFL
 70
     0
  9
$DIMTVP
 40
0.0
  9
$DIMTIX
 70
     0
  9
$DIMSOXD
 70
     0
  9
$DIMSAH
 70
     0
  9
$DIMBLK1
  1

  9
$DIMBLK2
  1

  9
$DIMSTYLE
  2
STANDARD
  9
$DIMCLRD
 70
     0
  9
$DIMCLRE
 70
     0
  9
$DIMCLRT
 70
     0
  9
$DIMTFAC
 40
1.0
  9
$DIMGAP
 40
0.09
  9
$DIMJUST
 70
     0
  9
$DIMSD1
 70
     0
  9
$DIMSD2
 70
     0
  9
$DIMTOLJ
 70
     1
  9
$DIMTZIN
 70
     0
  9
$DIMALTZ
 70
     0
  9
$DIMALTTZ
 70
     0
  9
$DIMFIT
 70
     3
  9
$DIMUPT
 70
     0
  9
$DIMUNIT
 70
     2
  9
$DIMDEC
 70
     4
  9
$DIMTDEC
 70
     4
  9
$DIMALTU
 70
     2
  9
$DIMALTTD
 70
     2
  9
$DIMTXSTY
  7
STANDARD
  9
$DIMAUNIT
 70
     0
  9
$LUNITS
 70
     2
  9
$LUPREC
 70
     4
  9
$SKETCHINC
 40
0.1
  9
$FILLETRAD
 40
0.5
  9
$AUNITS
 70
     0
  9
$AUPREC
 70
     0
  9
$MENU
  1
.
  9
$ELEVATION
 40
0.0
  9
$PELEVATION
 40
0.0
  9
$THICKNESS
 40
0.0
  9
$LIMCHECK
 70
     0
  9
$CHAMFERA
 40
0.5
  9
$CHAMFERB
 40
0.5
  9
$CHAMFERC
 40
1.0
  9
$CHAMFERD
 40
0.0
  9
$SKPOLY
 70
     0
  9
$TDCREATE
 40
2459417.552901261
  9
$TDUPDATE
 40
2459417.552901273
  9
$TDINDWG
 40
0.0000000116
  9
$TDUSRTIMER
 40
0.0000000116
  9
$USRTIMER
 70
     1
  9
$ANGBASE
 50
0.0
  9
$ANGDIR
 70
     0
  9
$PDMODE
 70
     0
  9
$PDSIZE
 40
0.0
  9
$PLINEWID
 40
0.0
  9
$COORDS
 70
     1
  9
$SPLFRAME
 70
     0
  9
$SPLINETYPE
 70
     6
  9
$SPLINESEGS
 70
     8
  9
$ATTDIA
 70
     0
  9
$ATTREQ
 70
     1
  9
$HANDLING
 70
     1
  9
$HANDSEED
  5
D4
  9
$SURFTAB1
 70
     6
  9
$SURFTAB2
 70
     6
  9
$SURFTYPE
 70
     6
  9
$SURFU
 70
     6
  9
$SURFV
 70
     6
  9
$UCSNAME
  2

  9
$UCSORG
 10
0.0
 20
0.0
 30
0.0
  9
$UCSXDIR
 10
1.0
 20
0.0
 30
0.0
  9
$UCSYDIR
 10
0.0
 20
1.0
 30
0.0
  9
$PUCSNAME
  2

  9
$PUCSORG
 10
0.0
 20
0.0
 30
0.0
  9
$PUCSXDIR
 10
1.0
 20
0.0
 30
0.0
  9
$PUCSYDIR
 10
0.0
 20
1.0
 30
0.0
  9
$USERI1
 70
     0
  9
$USERI2
 70
     0
  9
$USERI3
 70
     0
  9
$USERI4
 70
     0
  9
$USERI5
 70
     0
  9
$USERR1
 40
0.0
  9
$USERR2
 40
0.0
  9
$USERR3
 40
0.0
  9
$USERR4
 40
0.0
  9
$USERR5
 40
0.0
  9
$WORLDVIEW
 70
     1
  9
$SHADEDGE
 70
     3
  9
$SHADEDIF
 70
    70
  9
$TILEMODE
 70
     1
  9
$MAXACTVP
 70
    64
  9
$PINSBASE
 10
0.0
 20
0.0
 30
0.0
  9
$PLIMCHECK
 70
     0
  9
$PEXTMIN
 10
1.000000000000000E+20
 20
1.000000000000000E+20
 30
1.000000000000000E+20
  9
$PEXTMAX
 10
-1.000000000000000E+20
 20
-1.000000000000000E+20
 30
-1.000000000000000E+20
  9
$PLIMMIN
 10
0.0
 20
0.0
  9
$PLIMMAX
 10
12.0
 20
9.0
  9
$UNITMODE
 70
     0
  9
$VISRETAIN
 70
     1
  9
$PLINEGEN
 70
     0
  9
$PSLTSCALE
 70
     1
  9
$TREEDEPTH
 70
  3020
  9
$PICKSTYLE
 70
     1
  9
$CMLSTYLE
  2
STANDARD
  9
$CMLJUST
 70
     0
  9
$CMLSCALE
 40
1.0
  9
$SAVEIMAGES
 70
     1
  0
ENDSEC
  0
SECTION
  2
CLASSES
  0
CLASS
  1
ACDBDICTIONARYWDFLT
  2
AcDbDictionaryWithDefault
  3
ObjectDBX Classes
 90
    32768
280
     0
281
     0
  0
CLASS
  1
VISUALSTYLE
  2
AcDbVisualStyle
  3
ObjectDBX Classes
 90
     4095
280
     0
281
     0
  0
CLASS
  1
XRECORD
  2
AcDbXrecord
  3
AutoCAD 2000
 90
    32768
280
     0
281
     0
  0
CLASS
  1
LWPOLYLINE
  2
AcDbPolyline
  3
AutoCAD 2000
 90
    32768
280
     0
281
     1
  0
CLASS
  1
HATCH
  2
AcDbHatch
  3
AutoCAD 2000
 90
    32768
280
     0
281
     1
  0
CLASS
  1
ACDBPLACEHOLDER
  2
AcDbPlaceHolder
  3
ObjectDBX Classes
 90
        0
280
     0
281
     0
  0
CLASS
  1
LAYOUT
  2
AcDbLayout
  3
ObjectDBX Classes
 90
        0
280
     0
281
     0
  0
ENDSEC
  0
SECTION
  2
TABLES
  0
TABLE
  2
VPORT
  5
8
330
0
100
AcDbSymbolTable
 70
     1
  0
VPORT
  5
29
330
8
100
AcDbSymbolTableRecord
100
AcDbViewportTableRecord
  2
*ACTIVE
 70
     0
 10
0.0
 20
0.0
 11
1.0
 21
1.0
 12
0.0
 22
0.0
 13
0.0
 23
0.0
 14
0.5
 24
0.5
 15
0.5
 25
0.5
 16
0.0
 26
0.0
 36
1.0
 17
105.0008259828644
 27
-148.4999796178229
 37
0.0
 40
296.9999592356459
 41
0.7070763662937379
 42
50.0
 43
0.0
 44
0.0
 50
0.0
 51
0.0
 71
     0
 72
   100
 73
     1
 74
     3
 75
     0
 76
     0
 77
     0
 78
     0
  0
ENDTAB
  0
TABLE
  2
LTYPE
  5
5
330
0
100
AcDbSymbolTable
 70
     1
  0
LTYPE
  5
14
330
5
100
AcDbSymbolTableRecord
100
AcDbLinetypeTableRecord
  2
BYBLOCK
 70
     0
  3

 72
    65
 73
     0
 40
0.0
  0
LTYPE
  5
15
330
5
100
AcDbSymbolTableRecord
100
AcDbLinetypeTableRecord
  2
BYLAYER
 70
     0
  3

 72
    65
 73
     0
 40
0.0
  0
LTYPE
  5
16
330
5
100
AcDbSymbolTableRecord
100
AcDbLinetypeTableRecord
  2
CONTINUOUS
 70
     0
  3
Solid line
 72
    65
 73
     0
 40
0.0
  0
ENDTAB
  0
TABLE
  2
LAYER
  5
2
330
0
100
AcDbSymbolTable
 70
     2
  0
LAYER
  5
10
330
2
100
AcDbSymbolTableRecord
100
AcDbLayerTableRecord
  2
0
 70
     0
 62
     7
  6
CONTINUOUS
  0
LAYER
  5
3B
330
2
100
AcDbSymbolTableRecord
100
AcDbLayerTableRecord
  2
LAYER_1
 70
     0
 62
     7
  6
CONTINUOUS
  0
ENDTAB
  0
TABLE
  2
STYLE
  5
3
330
0
100
AcDbSymbolTable
 70
     1
  0
STYLE
  5
11
330
3
100
AcDbSymbolTableRecord
100
AcDbTextStyleTableRecord
  2
STANDARD
 70
     0
 40
0.0
 41
1.0
 50
0.0
 71
     0
 42
0.2
  3
txt
  4

  0
ENDTAB
  0
TABLE
  2
VIEW
  5
6
330
0
100
AcDbSymbolTable
 70
     0
  0
ENDTAB
  0
TABLE
  2
UCS
  5
7
330
0
100
AcDbSymbolTable
 70
     0
  0
ENDTAB
  0
TABLE
  2
APPID
  5
9
330
0
100
AcDbSymbolTable
 70
     1
  0
APPID
  5
12
330
9
100
AcDbSymbolTableRecord
100
AcDbRegAppTableRecord
  2
ACAD
 70
     0
  0
ENDTAB
  0
TABLE
  2
DIMSTYLE
  5
A
330
0
100
AcDbSymbolTable
 70
     1
  0
DIMSTYLE
105
27
330
A
100
AcDbSymbolTableRecord
100
AcDbDimStyleTableRecord
  2
STANDARD
 70
     0
  3

  4

  5

  6

  7

 40
1.0
 41
0.18
 42
0.0625
 43
0.38
 44
0.18
 45
0.0
 46
0.0
 47
0.0
 48
0.0
140
0.18
141
0.09
142
0.0
143
25.4
144
1.0
145
0.0
146
1.0
147
0.09
 71
     0
 72
     0
 73
     1
 74
     1
 75
     0
 76
     0
 77
     0
 78
     0
170
     0
171
     2
172
     0
173
     0
174
     0
175
     0
176
     0
177
     0
178
     0
270
     2
271
     4
272
     4
273
     2
274
     2
340
11
275
     0
280
     0
281
     0
282
     0
283
     1
284
     0
285
     0
286
     0
287
     3
288
     0
  0
ENDTAB
  0
TABLE
  2
BLOCK_RECORD
  5
1
330
0
100
AcDbSymbolTable
 70
     1
  0
BLOCK_RECORD
  5
1F
330
1
100
AcDbSymbolTableRecord
100
AcDbBlockTableRecord
  2
*MODEL_SPACE
  0
BLOCK_RECORD
  5
1B
330
1
100
AcDbSymbolTableRecord
100
AcDbBlockTableRecord
  2
*PAPER_SPACE
  0
ENDTAB
  0
ENDSEC
  0
SECTION
  2
BLOCKS
  0
BLOCK
  5
20
330
1F
100
AcDbEntity
  8
0
100
AcDbBlockBegin
  2
*MODEL_SPACE
 70
     0
 71
     0
 10
0.0
 20
0.0
 30
0.0
  3
*MODEL_SPACE
  1

  0
ENDBLK
  5
21
330
1F
100
AcDbEntity
  8
0
100
AcDbBlockEnd
  0
BLOCK
  5
1C
330
1B
100
AcDbEntity
 67
     1
  8
0
100
AcDbBlockBegin
  2
*PAPER_SPACE
 70
     0
 71
     0
 10
0.0
 20
0.0
 30
0.0
  3
*PAPER_SPACE
  1

  0
ENDBLK
  5
1D
330
1B
100
AcDbEntity
 67
     1
  8
0
100
AcDbBlockEnd
  0
ENDSEC
  0
SECTION
  2
ENTITIES
  0
SPLINE
  5
3C
330
1F
100
AcDbEntity
  8
LAYER_1
 62
     7
100
AcDbSpline
210
0.0
220
0.0
230
1.0
 70
     8
 71
     3
 72
     8
 73
     4
 74
     0
 42
0.0000000001
 43
0.0000000001
 40
0.0
 40
0.0
 40
0.0
 40
0.0
 40
1.0
 40
1.0
 40
1.0
 40
1.0
 10
56.4515068760781
 20
-192.2959282288357
 30
0.0
 10
55.8475816375138
 20
-190.5871608681518
 30
0.0
 10
54.50330537916931
 20
-189.2428846098073
 30
0.0
 10
52.79488252803392
 20
-188.6386148616945
 30
0.0
  0
POLYLINE
  5
3D
330
1F
100
AcDbEntity
  8
LAYER_1
 62
     7
100
AcDb2dPolyline
 66
     1
 10
0.0
 20
0.0
 30
0.0
  0
VERTEX
  5
3E
330
3D
100
AcDbEntity
  8
LAYER_1
 62
     7
100
AcDbVertex
100
AcDb2dVertex
 10
90.79463023988815
 20
-192.2959282288357
 30
0.0
  0
VERTEX
  5
3F
330
3D
100
AcDbEntity
  8
LAYER_1
 62
     7
100
AcDbVertex
100
AcDb2dVertex
 10
52.79488252803392
 20
-192.2959282288357
 30
0.0
  0
VERTEX
  5
40
330
3D
100
AcDbEntity
  8
LAYER_1
 62
     7
100
AcDbVertex
100
AcDb2dVertex
 10
52.79488252803392
 20
-154.295836007433
 30
0.0
  0
SEQEND
  5
41
330
3D
100
AcDbEntity
  8
LAYER_1
  0
POLYLINE
  5
42
330
1F
100
AcDbEntity
  8
LAYER_1
 62
     7
100
AcDb2dPolyline
 66
     1
 10
0.0
 20
0.0
 30
0.0
  0
VERTEX
  5
43
330
42
100
AcDbEntity
  8
LAYER_1
 62
     7
100
AcDbVertex
100
AcDb2dVertex
 10
157.336821792263
 20
-205.8727050266568
 30
0.0
  0
VERTEX
  5
44
330
42
100
AcDbEntity
  8
LAYER_1
 62
     7
100
AcDbVertex
100
AcDb2dVertex
 10
157.336821792263
 20
-205.8727050266568
 30
0.0
  0
VERTEX
  5
45
330
42
100
AcDbEntity
  8
LAYER_1
 62
     7
100
AcDbVertex
100
AcDb2dVertex
 10
172.4676811634803
 20
-205.8727050266568
 30
0.0
  0
VERTEX
  5
46
330
42
100
AcDbEntity
  8
LAYER_1
 62
     7
100
AcDbVertex
100
AcDb2dVertex
 10
172.4676811634803
 20
-207.4867322614964
 30
0.0
  0
VERTEX
  5
47
330
42
100
AcDbEntity
  8
LAYER_1
 62
     7
100
AcDbVertex
100
AcDb2dVertex
 10
176.1763264533517
 20
-205.3456054174136
 30
0.0
  0
VERTEX
  5
48
330
42
100
AcDbEntity
  8
LAYER_1
 62
     7
100
AcDbVertex
100
AcDb2dVertex
 10
172.4676811634803
 20
-203.2037895542338
 30
0.0
  0
VERTEX
  5
49
330
42
100
AcDbEntity
  8
LAYER_1
 62
     7
100
AcDbVertex
100
AcDb2dVertex
 10
172.4676811634803
 20
-204.8178167890733
 30
0.0
  0
VERTEX
  5
4A
330
42
100
AcDbEntity
  8
LAYER_1
 62
     7
100
AcDbVertex
100
AcDb2dVertex
 10
157.7709038234045
 20
-204.8178167890733
 30
0.0
  0
VERTEX
  5
4B
330
42
100
AcDbEntity
  8
LAYER_1
 62
     7
100
AcDbVertex
100
AcDb2dVertex
 10
157.7709038234045
 20
-204.8174722795248
 30
0.0
  0
VERTEX
  5
4C
330
42
100
AcDbEntity
  8
LAYER_1
 62
     7
100
AcDbVertex
100
AcDb2dVertex
 10
149.0224283481611
 20
-204.8174722795248
 30
0.0
  0
VERTEX
  5
4D
330
42
100
AcDbEntity
  8
LAYER_1
 62
     7
100
AcDbVertex
100
AcDb2dVertex
 10
149.0224283481611
 20
-203.2034450446853
 30
0.0
  0
VERTEX
  5
4E
330
42
100
AcDbEntity
  8
LAYER_1
 62
     7
100
AcDbVertex
100
AcDb2dVertex
 10
145.3137830582896
 20
-205.3449163983166
 30
0.0
  0
VERTEX
  5
4F
330
42
100
AcDbEntity
  8
LAYER_1
 62
     7
100
AcDbVertex
100
AcDb2dVertex
 10
149.0224283481611
 20
-207.4863877519479
 30
0.0
  0
VERTEX
  5
50
330
42
100
AcDbEntity
  8
LAYER_1
 62
     7
100
AcDbVertex
100
AcDb2dVertex
 10
149.0224283481611
 20
-205.8727050266568
 30
0.0
  0
VERTEX
  5
51
330
42
100
AcDbEntity
  8
LAYER_1
 62
     7
100
AcDbVertex
100
AcDb2dVertex
 10
157.336821792263
 20
-205.8727050266568
 30
0.0
  0
SEQEND
  5
52
330
42
100
AcDbEntity
  8
LAYER_1
  0
SPLINE
  5
53
330
1F
100
AcDbEntity
  8
LAYER_1
 62
     7
100
AcDbSpline
210
0.0
220
0.0
230
1.0
 70
    11
 71
     3
 72
    17
 73
    13
 74
     0
 42
0.0000000001
 43
0.0000000001
 40
0.0
 40
0.0
 40
0.0
 40
0.0
 40
1.0
 40
1.0
 40
1.0
 40
2.0
 40
2.0
 40
2.0
 40
3.0
 40
3.0
 40
3.0
 40
4.0
 40
4.0
 40
4.0
 40
4.0
 10
49.69774168679432
 20
-156.3804632855577
 30
0.0
 10
49.69774168679432
 20
-155.4971408031396
 30
0.0
 10
49.04592962098505
 20
-154.9404133727232
 30
0.0
 10
48.03651664380685
 20
-154.9404133727232
 30
0.0
 10
47.14285887493304
 20
-154.9404133727232
 30
0.0
 10
46.37529160081937
 20
-155.4241047788523
 30
0.0
 10
46.37529160081937
 20
-156.3804632855577
 30
0.0
 10
46.37529160081937
 20
-157.2637857679757
 30
0.0
 10
47.02710366662864
 20
-157.8315375039449
 30
0.0
 10
48.03651664380685
 20
-157.8315375039449
 30
0.0
 10
49.04592962098505
 20
-157.8315375039449
 30
0.0
 10
49.69774168679432
 20
-157.2637857679757
 30
0.0
 10
49.69774168679432
 20
-156.3804632855577
 30
0.0
  0
SPLINE
  5
54
330
1F
100
AcDbEntity
  8
LAYER_1
 62
     7
100
AcDbSpline
210
0.0
220
0.0
230
1.0
 70
    11
 71
     3
 72
    23
 73
    19
 74
     0
 42
0.0000000001
 43
0.0000000001
 40
0.0
 40
0.0
 40
0.0
 40
0.0
 40
1.0
 40
1.0
 40
1.0
 40
2.0
 40
2.0
 40
2.0
 40
3.0
 40
3.0
 40
3.0
 40
4.0
 40
4.0
 40
4.0
 40
5.0
 40
5.0
 40
5.0
 40
6.0
 40
6.0
 40
6.0
 40
6.0
 10
43.52275253903251
 20
-160.9410806889314
 30
0.0
 10
43.52275253903251
 20
-160.0040147169435
 30
0.0
 10
44.20212536872378
 20
-159.3335991355138
 30
0.0
 10
45.15572779904093
 20
-159.3335991355138
 30
0.0
 10
45.15572779904093
 20
-159.3335991355138
 30
0.0
 10
48.11334227312792
 20
-159.3335991355138
 30
0.0
 10
48.11334227312792
 20
-159.3335991355138
 30
0.0
 10
49.06728921299359
 20
-159.3335991355138
 30
0.0
 10
49.74666204268487
 20
-160.0040147169435
 30
0.0
 10
49.74666204268487
 20
-160.9410806889314
 30
0.0
 10
49.74666204268487
 20
-161.886414890084
 30
0.0
 10
49.06728921299359
 20
-162.548562242349
 30
0.0
 10
48.11334227312792
 20
-162.548562242349
 30
0.0
 10
48.11334227312792
 20
-162.548562242349
 30
0.0
 10
45.15572779904093
 20
-162.548562242349
 30
0.0
 10
45.15572779904093
 20
-162.548562242349
 30
0.0
 10
44.20212536872378
 20
-162.548562242349
 30
0.0
 10
43.52275253903251
 20
-161.886414890084
 30
0.0
 10
43.52275253903251
 20
-160.9410806889314
 30
0.0
  0
SPLINE
  5
55
330
1F
100
AcDbEntity
  8
LAYER_1
 62
     7
100
AcDbSpline
210
0.0
220
0.0
230
1.0
 70
    11
 71
     3
 72
    17
 73
    13
 74
     0
 42
0.0000000001
 43
0.0000000001
 40
0.0
 40
0.0
 40
0.0
 40
0.0
 40
1.0
 40
1.0
 40
1.0
 40
2.0
 40
2.0
 40
2.0
 40
3.0
 40
3.0
 40
3.0
 40
4.0
 40
4.0
 40
4.0
 40
4.0
 10
48.59358858377174
 20
-165.224023396194
 30
0.0
 10
48.08888209518264
 20
-165.224023396194
 30
0.0
 10
47.67960475153496
 20
-164.8147460525463
 30
0.0
 10
47.67960475153496
 20
-164.3096950544087
 30
0.0
 10
47.67960475153496
 20
-163.8046440562711
 30
0.0
 10
48.08888209518264
 20
-163.3953667126234
 30
0.0
 10
48.59358858377174
 20
-163.3953667126234
 30
0.0
 10
49.09863958190937
 20
-163.3953667126234
 30
0.0
 10
49.50791692555705
 20
-163.8046440562711
 30
0.0
 10
49.50791692555705
 20
-164.3096950544087
 30
0.0
 10
49.50791692555705
 20
-164.8147460525463
 30
0.0
 10
49.09863958190937
 20
-165.224023396194
 30
0.0
 10
48.59358858377174
 20
-165.224023396194
 30
0.0
  0
SPLINE
  5
56
330
1F
100
AcDbEntity
  8
LAYER_1
 62
     7
100
AcDbSpline
210
0.0
220
0.0
230
1.0
 70
     8
 71
     3
 72
     8
 73
     4
 74
     0
 42
0.0000000001
 43
0.0000000001
 40
0.0
 40
0.0
 40
0.0
 40
0.0
 40
1.0
 40
1.0
 40
1.0
 40
1.0
 10
43.49553628469904
 20
-155.8843695356817
 30
0.0
 10
43.49553628469904
 20
-155.8988389367198
 30
0.0
 10
47.12735594524941
 20
-157.6358560803827
 30
0.0
 10
47.12735594524941
 20
-157.6358560803827
 30
0.0
  0
POLYLINE
  5
57
330
1F
100
AcDbEntity
  8
LAYER_1
100
AcDb2dPolyline
 66
     1
 10
0.0
 20
0.0
 30
0.0
  0
VERTEX
  5
58
330
57
100
AcDbEntity
  8
LAYER_1
100
AcDbVertex
100
AcDb2dVertex
 10
60.36909720712995
 20
-200.0746093249814
 30
0.0
  0
VERTEX
  5
59
330
57
100
AcDbEntity
  8
LAYER_1
100
AcDbVertex
100
AcDb2dVertex
 10
64.07326387287057
 20
-206.3398599744567
 30
0.0
  0
SEQEND
  5
5A
330
57
100
AcDbEntity
  8
LAYER_1
  0
POLYLINE
  5
5B
330
1F
100
AcDbEntity
  8
LAYER_1
100
AcDb2dPolyline
 66
     1
 10
0.0
 20
0.0
 30
0.0
  0
VERTEX
  5
5C
330
5B
100
AcDbEntity
  8
LAYER_1
100
AcDbVertex
100
AcDb2dVertex
 10
64.07326387287057
 20
-200.0746093249814
 30
0.0
  0
VERTEX
  5
5D
330
5B
100
AcDbEntity
  8
LAYER_1
100
AcDbVertex
100
AcDb2dVertex
 10
60.36909720712995
 20
-206.3398599744567
 30
0.0
  0
SEQEND
  5
5E
330
5B
100
AcDbEntity
  8
LAYER_1
  0
SPLINE
  5
5F
330
1F
100
AcDbEntity
  8
LAYER_1
 62
     7
100
AcDbSpline
210
0.0
220
0.0
230
1.0
 70
     8
 71
     3
 72
    20
 73
    16
 74
     0
 42
0.0000000001
 43
0.0000000001
 40
0.0
 40
0.0
 40
0.0
 40
0.0
 40
1.0
 40
1.0
 40
1.0
 40
2.0
 40
2.0
 40
2.0
 40
3.0
 40
3.0
 40
3.0
 40
4.0
 40
4.0
 40
4.0
 40
5.0
 40
5.0
 40
5.0
 40
5.0
 10
109.7262912052073
 20
-209.4487141403462
 30
0.0
 10
109.7262912052073
 20
-209.4487141403462
 30
0.0
 10
109.7262912052073
 20
-206.3333142930347
 30
0.0
 10
109.7262912052073
 20
-206.3333142930347
 30
0.0
 10
109.7262912052073
 20
-206.3333142930347
 30
0.0
 10
110.3715575895946
 20
-206.3333142930347
 30
0.0
 10
110.9389648160153
 20
-206.3333142930347
 30
0.0
 10
111.5060275328874
 20
-206.3333142930347
 30
0.0
 10
111.7564859746651
 20
-206.8586913545353
 30
0.0
 10
111.7564859746651
 20
-207.2407524438495
 30
0.0
 10
111.7564859746651
 20
-207.6228135331638
 30
0.0
 10
111.3978515346505
 20
-208.0723984939889
 30
0.0
 10
110.9258734531713
 20
-208.0723984939889
 30
0.0
 10
110.4538953716921
 20
-208.0723984939889
 30
0.0
 10
109.7262912052073
 20
-208.0551730165626
 30
0.0
 10
109.7262912052073
 20
-208.0551730165626
 30
0.0
  0
SPLINE
  5
60
330
1F
100
AcDbEntity
  8
LAYER_1
 62
     7
100
AcDbSpline
210
0.0
220
0.0
230
1.0
 70
     8
 71
     3
 72
    23
 73
    19
 74
     0
 42
0.0000000001
 43
0.0000000001
 40
0.0
 40
0.0
 40
0.0
 40
0.0
 40
1.0
 40
1.0
 40
1.0
 40
2.0
 40
2.0
 40
2.0
 40
3.0
 40
3.0
 40
3.0
 40
4.0
 40
4.0
 40
4.0
 40
5.0
 40
5.0
 40
5.0
 40
6.0
 40
6.0
 40
6.0
 40
6.0
 10
103.8699733898311
 20
-206.6984944144712
 30
0.0
 10
103.8699733898311
 20
-206.6984944144712
 30
0.0
 10
103.6327785656717
 20
-206.3395154649082
 30
0.0
 10
102.9651190606303
 20
-206.3395154649082
 30
0.0
 10
102.2976318103631
 20
-206.3395154649082
 30
0.0
 10
102.0780069731784
 20
-206.9014105385524
 30
0.0
 10
102.0780069731784
 20
-207.1473903561993
 30
0.0
 10
102.0780069731784
 20
-207.3933701738461
 30
0.0
 10
102.2218397096876
 20
-207.8501898351902
 30
0.0
 10
102.9739040541176
 20
-207.9204697830893
 30
0.0
 10
103.5888535982347
 20
-207.978002877693
 30
0.0
 10
103.957823324705
 20
-208.2015895746857
 30
0.0
 10
103.957823324705
 20
-208.7638291578785
 30
0.0
 10
103.957823324705
 20
-209.2554442836237
 30
0.0
 10
103.5302869749855
 20
-209.4487141403462
 30
0.0
 10
102.9739040541176
 20
-209.4487141403462
 30
0.0
 10
102.3064168038505
 20
-209.4487141403462
 30
0.0
 10
101.9725870513298
 20
-209.0973144008507
 30
0.0
 10
101.9725870513298
 20
-209.0973144008507
 30
0.0
  0
POLYLINE
  5
61
330
1F
100
AcDbEntity
  8
LAYER_1
 62
     7
100
AcDb2dPolyline
 66
     1
 10
0.0
 20
0.0
 30
0.0
  0
VERTEX
  5
62
330
61
100
AcDbEntity
  8
LAYER_1
 62
     7
100
AcDbVertex
100
AcDb2dVertex
 10
104.326620796401
 20
-206.3395154649082
 30
0.0
  0
VERTEX
  5
63
330
61
100
AcDbEntity
  8
LAYER_1
 62
     7
100
AcDbVertex
100
AcDb2dVertex
 10
105.4684976949871
 20
-206.3395154649082
 30
0.0
  0
VERTEX
  5
64
330
61
100
AcDbEntity
  8
LAYER_1
 62
     7
100
AcDbVertex
100
AcDb2dVertex
 10
106.6105468483474
 20
-206.3395154649082
 30
0.0
  0
SEQEND
  5
65
330
61
100
AcDbEntity
  8
LAYER_1
  0
POLYLINE
  5
66
330
1F
100
AcDbEntity
  8
LAYER_1
 62
     7
100
AcDb2dPolyline
 66
     1
 10
0.0
 20
0.0
 30
0.0
  0
VERTEX
  5
67
330
66
100
AcDbEntity
  8
LAYER_1
 62
     7
100
AcDbVertex
100
AcDb2dVertex
 10
105.4684976949871
 20
-209.4487141403462
 30
0.0
  0
VERTEX
  5
68
330
66
100
AcDbEntity
  8
LAYER_1
 62
     7
100
AcDbVertex
100
AcDb2dVertex
 10
105.4684976949871
 20
-206.3395154649082
 30
0.0
  0
SEQEND
  5
69
330
66
100
AcDbEntity
  8
LAYER_1
  0
POLYLINE
  5
6A
330
1F
100
AcDbEntity
  8
LAYER_1
 62
     7
100
AcDb2dPolyline
 66
     1
 10
0.0
 20
0.0
 30
0.0
  0
VERTEX
  5
6B
330
6A
100
AcDbEntity
  8
LAYER_1
 62
     7
100
AcDbVertex
100
AcDb2dVertex
 10
108.9997205673681
 20
-206.3395154649082
 30
0.0
  0
VERTEX
  5
6C
330
6A
100
AcDbEntity
  8
LAYER_1
 62
     7
100
AcDbVertex
100
AcDb2dVertex
 10
107.1548719350168
 20
-206.3395154649082
 30
0.0
  0
VERTEX
  5
6D
330
6A
100
AcDbEntity
  8
LAYER_1
 62
     7
100
AcDbVertex
100
AcDb2dVertex
 10
107.1548719350168
 20
-209.4487141403462
 30
0.0
  0
VERTEX
  5
6E
330
6A
100
AcDbEntity
  8
LAYER_1
 62
     7
100
AcDbVertex
100
AcDb2dVertex
 10
108.9997205673681
 20
-209.4487141403462
 30
0.0
  0
SEQEND
  5
6F
330
6A
100
AcDbEntity
  8
LAYER_1
  0
POLYLINE
  5
70
330
1F
100
AcDbEntity
  8
LAYER_1
 62
     7
100
AcDb2dPolyline
 66
     1
 10
0.0
 20
0.0
 30
0.0
  0
VERTEX
  5
71
330
70
100
AcDbEntity
  8
LAYER_1
 62
     7
100
AcDbVertex
100
AcDb2dVertex
 10
108.8240206976204
 20
-207.8939425478529
 30
0.0
  0
VERTEX
  5
72
330
70
100
AcDbEntity
  8
LAYER_1
 62
     7
100
AcDbVertex
100
AcDb2dVertex
 10
107.1548719350168
 20
-207.8939425478529
 30
0.0
  0
SEQEND
  5
73
330
70
100
AcDbEntity
  8
LAYER_1
  0
SPLINE
  5
74
330
1F
100
AcDbEntity
  8
LAYER_1
 62
     7
100
AcDbSpline
210
0.0
220
0.0
230
1.0
 70
    11
 71
     3
 72
    17
 73
    13
 74
     0
 42
0.0000000001
 43
0.0000000001
 40
0.0
 40
0.0
 40
0.0
 40
0.0
 40
1.0
 40
1.0
 40
1.0
 40
2.0
 40
2.0
 40
2.0
 40
3.0
 40
3.0
 40
3.0
 40
4.0
 40
4.0
 40
4.0
 40
4.0
 10
115.4175889468401
 20
-207.0712537459752
 30
0.0
 10
115.4175889468401
 20
-207.4784640323318
 30
0.0
 10
115.079625079737
 20
-207.8088486893672
 30
0.0
 10
114.6624240164733
 20
-207.8088486893672
 30
0.0
 10
114.244878443661
 20
-207.8088486893672
 30
0.0
 10
113.906914576558
 20
-207.4784640323318
 30
0.0
 10
113.906914576558
 20
-207.0712537459752
 30
0.0
 10
113.906914576558
 20
-206.6636989500702
 30
0.0
 10
114.244878443661
 20
-206.3333142930347
 30
0.0
 10
114.6624240164733
 20
-206.3333142930347
 30
0.0
 10
115.079625079737
 20
-206.3333142930347
 30
0.0
 10
115.4175889468401
 20
-206.6636989500702
 30
0.0
 10
115.4175889468401
 20
-207.0712537459752
 30
0.0
  0
SPLINE
  5
75
330
1F
100
AcDbEntity
  8
LAYER_1
 62
     7
100
AcDbSpline
210
0.0
220
0.0
230
1.0
 70
    11
 71
     3
 72
    17
 73
    13
 74
     0
 42
0.0000000001
 43
0.0000000001
 40
0.0
 40
0.0
 40
0.0
 40
0.0
 40
1.0
 40
1.0
 40
1.0
 40
2.0
 40
2.0
 40
2.0
 40
3.0
 40
3.0
 40
3.0
 40
4.0
 40
4.0
 40
4.0
 40
4.0
 10
115.4765000796378
 20
-208.6408392490551
 30
0.0
 10
115.4765000796378
 20
-209.0997259676903
 30
0.0
 10
115.1120089772984
 20
-209.4721407896459
 30
0.0
 10
114.6624240164733
 20
-209.4721407896459
 30
0.0
 10
114.2124945460997
 20
-209.4721407896459
 30
0.0
 10
113.8480034437602
 20
-209.0997259676903
 30
0.0
 10
113.8480034437602
 20
-208.6408392490551
 30
0.0
 10
113.8480034437602
 20
-208.1812635113228
 30
0.0
 10
114.2124945460997
 20
-207.8088486893672
 30
0.0
 10
114.6624240164733
 20
-207.8088486893672
 30
0.0
 10
115.1120089772984
 20
-207.8088486893672
 30
0.0
 10
115.4765000796378
 20
-208.1812635113228
 30
0.0
 10
115.4765000796378
 20
-208.6408392490551
 30
0.0
  0
SPLINE
  5
76
330
1F
100
AcDbEntity
  8
LAYER_1
 62
     7
100
AcDbSpline
210
0.0
220
0.0
230
1.0
 70
     8
 71
     3
 72
    20
 73
    16
 74
     0
 42
0.0000000001
 43
0.0000000001
 40
0.0
 40
0.0
 40
0.0
 40
0.0
 40
1.0
 40
1.0
 40
1.0
 40
2.0
 40
2.0
 40
2.0
 40
3.0
 40
3.0
 40
3.0
 40
4.0
 40
4.0
 40
4.0
 40
5.0
 40
5.0
 40
5.0
 40
5.0
 10
161.7468885229313
 20
-200.8614691338124
 30
0.0
 10
161.7468885229313
 20
-200.8614691338124
 30
0.0
 10
161.7468885229313
 20
-197.746069286501
 30
0.0
 10
161.7468885229313
 20
-197.746069286501
 30
0.0
 10
161.7468885229313
 20
-197.746069286501
 30
0.0
 10
162.3921549073186
 20
-197.746069286501
 30
0.0
 10
162.9595621337393
 20
-197.746069286501
 30
0.0
 10
163.5266248506114
 20
-197.746069286501
 30
0.0
 10
163.7770832923891
 20
-198.2714463480016
 30
0.0
 10
163.7770832923891
 20
-198.6535074373158
 30
0.0
 10
163.7770832923891
 20
-199.03556852663
 30
0.0
 10
163.4184488523746
 20
-199.4851534874551
 30
0.0
 10
162.9464707708953
 20
-199.4851534874551
 30
0.0
 10
162.4744926894161
 20
-199.4851534874551
 30
0.0
 10
161.7468885229313
 20
-199.4679280100289
 30
0.0
 10
161.7468885229313
 20
-199.4679280100289
 30
0.0
  0
SPLINE
  5
77
330
1F
100
AcDbEntity
  8
LAYER_1
 62
     7
100
AcDbSpline
210
0.0
220
0.0
230
1.0
 70
     8
 71
     3
 72
    23
 73
    19
 74
     0
 42
0.0000000001
 43
0.0000000001
 40
0.0
 40
0.0
 40
0.0
 40
0.0
 40
1.0
 40
1.0
 40
1.0
 40
2.0
 40
2.0
 40
2.0
 40
3.0
 40
3.0
 40
3.0
 40
4.0
 40
4.0
 40
4.0
 40
5.0
 40
5.0
 40
5.0
 40
6.0
 40
6.0
 40
6.0
 40
6.0
 10
155.8905707075552
 20
-198.1112494079375
 30
0.0
 10
155.8905707075552
 20
-198.1112494079375
 30
0.0
 10
155.6532036286214
 20
-197.7522704583745
 30
0.0
 10
154.98554412358
 20
-197.7522704583745
 30
0.0
 10
154.3182291280871
 20
-197.7522704583745
 30
0.0
 10
154.0987765456767
 20
-198.3141655320187
 30
0.0
 10
154.0987765456767
 20
-198.5601453496655
 30
0.0
 10
154.0987765456767
 20
-198.8061251673124
 30
0.0
 10
154.2424370274116
 20
-199.2629448286565
 30
0.0
 10
154.9945013718417
 20
-199.3332247765556
 30
0.0
 10
155.6094509159587
 20
-199.3907578711593
 30
0.0
 10
155.978420642429
 20
-199.614344568152
 30
0.0
 10
155.978420642429
 20
-200.1765841513447
 30
0.0
 10
155.978420642429
 20
-200.6681992770899
 30
0.0
 10
155.5508842927095
 20
-200.8614691338124
 30
0.0
 10
154.9945013718417
 20
-200.8614691338124
 30
0.0
 10
154.3268418668002
 20
-200.8614691338124
 30
0.0
 10
153.993356623828
 20
-200.5100693943169
 30
0.0
 10
153.993356623828
 20
-200.5100693943169
 30
0.0
  0
POLYLINE
  5
78
330
1F
100
AcDbEntity
  8
LAYER_1
 62
     7
100
AcDb2dPolyline
 66
     1
 10
0.0
 20
0.0
 30
0.0
  0
VERTEX
  5
79
330
78
100
AcDbEntity
  8
LAYER_1
 62
     7
100
AcDbVertex
100
AcDb2dVertex
 10
156.3470458593507
 20
-197.7522704583745
 30
0.0
  0
VERTEX
  5
7A
330
78
100
AcDbEntity
  8
LAYER_1
 62
     7
100
AcDbVertex
100
AcDb2dVertex
 10
157.4890950127111
 20
-197.7522704583745
 30
0.0
  0
VERTEX
  5
7B
330
78
100
AcDbEntity
  8
LAYER_1
 62
     7
100
AcDbVertex
100
AcDb2dVertex
 10
158.6311441660714
 20
-197.7522704583745
 30
0.0
  0
SEQEND
  5
7C
330
78
100
AcDbEntity
  8
LAYER_1
  0
POLYLINE
  5
7D
330
1F
100
AcDbEntity
  8
LAYER_1
 62
     7
100
AcDb2dPolyline
 66
     1
 10
0.0
 20
0.0
 30
0.0
  0
VERTEX
  5
7E
330
7D
100
AcDbEntity
  8
LAYER_1
 62
     7
100
AcDbVertex
100
AcDb2dVertex
 10
157.4890950127111
 20
-200.8614691338124
 30
0.0
  0
VERTEX
  5
7F
330
7D
100
AcDbEntity
  8
LAYER_1
 62
     7
100
AcDbVertex
100
AcDb2dVertex
 10
157.4890950127111
 20
-197.7522704583745
 30
0.0
  0
SEQEND
  5
80
330
7D
100
AcDbEntity
  8
LAYER_1
  0
POLYLINE
  5
81
330
1F
100
AcDbEntity
  8
LAYER_1
 62
     7
100
AcDb2dPolyline
 66
     1
 10
0.0
 20
0.0
 30
0.0
  0
VERTEX
  5
82
330
81
100
AcDbEntity
  8
LAYER_1
 62
     7
100
AcDbVertex
100
AcDb2dVertex
 10
161.0203178850921
 20
-197.7522704583745
 30
0.0
  0
VERTEX
  5
83
330
81
100
AcDbEntity
  8
LAYER_1
 62
     7
100
AcDbVertex
100
AcDb2dVertex
 10
159.1754692527409
 20
-197.7522704583745
 30
0.0
  0
VERTEX
  5
84
330
81
100
AcDbEntity
  8
LAYER_1
 62
     7
100
AcDbVertex
100
AcDb2dVertex
 10
159.1754692527409
 20
-200.8614691338124
 30
0.0
  0
VERTEX
  5
85
330
81
100
AcDbEntity
  8
LAYER_1
 62
     7
100
AcDbVertex
100
AcDb2dVertex
 10
161.0203178850921
 20
-200.8614691338124
 30
0.0
  0
SEQEND
  5
86
330
81
100
AcDbEntity
  8
LAYER_1
  0
POLYLINE
  5
87
330
1F
100
AcDbEntity
  8
LAYER_1
 62
     7
100
AcDb2dPolyline
 66
     1
 10
0.0
 20
0.0
 30
0.0
  0
VERTEX
  5
88
330
87
100
AcDbEntity
  8
LAYER_1
 62
     7
100
AcDbVertex
100
AcDb2dVertex
 10
160.8446180153444
 20
-199.3066975413192
 30
0.0
  0
VERTEX
  5
89
330
87
100
AcDbEntity
  8
LAYER_1
 62
     7
100
AcDbVertex
100
AcDb2dVertex
 10
159.1754692527409
 20
-199.3066975413192
 30
0.0
  0
SEQEND
  5
8A
330
87
100
AcDbEntity
  8
LAYER_1
  0
SPLINE
  5
8B
330
1F
100
AcDbEntity
  8
LAYER_1
 62
     7
100
AcDbSpline
210
0.0
220
0.0
230
1.0
 70
    11
 71
     3
 72
    17
 73
    13
 74
     0
 42
0.0000000001
 43
0.0000000001
 40
0.0
 40
0.0
 40
0.0
 40
0.0
 40
1.0
 40
1.0
 40
1.0
 40
2.0
 40
2.0
 40
2.0
 40
3.0
 40
3.0
 40
3.0
 40
4.0
 40
4.0
 40
4.0
 40
4.0
 10
167.4381862645641
 20
-198.4840087394415
 30
0.0
 10
167.4381862645641
 20
-198.8912190257981
 30
0.0
 10
167.1002223974611
 20
-199.2216036828335
 30
0.0
 10
166.6830213341973
 20
-199.2216036828335
 30
0.0
 10
166.265475761385
 20
-199.2216036828335
 30
0.0
 10
165.927511894282
 20
-198.8912190257981
 30
0.0
 10
165.927511894282
 20
-198.4840087394415
 30
0.0
 10
165.927511894282
 20
-198.0764539435364
 30
0.0
 10
166.265475761385
 20
-197.746069286501
 30
0.0
 10
166.6830213341973
 20
-197.746069286501
 30
0.0
 10
167.1002223974611
 20
-197.746069286501
 30
0.0
 10
167.4381862645641
 20
-198.0764539435364
 30
0.0
 10
167.4381862645641
 20
-198.4840087394415
 30
0.0
  0
SPLINE
  5
8C
330
1F
100
AcDbEntity
  8
LAYER_1
 62
     7
100
AcDbSpline
210
0.0
220
0.0
230
1.0
 70
    11
 71
     3
 72
    17
 73
    13
 74
     0
 42
0.0000000001
 43
0.0000000001
 40
0.0
 40
0.0
 40
0.0
 40
0.0
 40
1.0
 40
1.0
 40
1.0
 40
2.0
 40
2.0
 40
2.0
 40
3.0
 40
3.0
 40
3.0
 40
4.0
 40
4.0
 40
4.0
 40
4.0
 10
167.4970973973618
 20
-200.0535942425213
 30
0.0
 10
167.4970973973618
 20
-200.5124809611566
 30
0.0
 10
167.1326062950224
 20
-200.8848957831121
 30
0.0
 10
166.6830213341973
 20
-200.8848957831121
 30
0.0
 10
166.2330918638237
 20
-200.8848957831121
 30
0.0
 10
165.8686007614843
 20
-200.5124809611566
 30
0.0
 10
165.8686007614843
 20
-200.0535942425213
 30
0.0
 10
165.8686007614843
 20
-199.594018504789
 30
0.0
 10
166.2330918638237
 20
-199.2216036828335
 30
0.0
 10
166.6830213341973
 20
-199.2216036828335
 30
0.0
 10
167.1326062950224
 20
-199.2216036828335
 30
0.0
 10
167.4970973973618
 20
-199.594018504789
 30
0.0
 10
167.4970973973618
 20
-200.0535942425213
 30
0.0
  0
SPLINE
  5
8D
330
1F
100
AcDbEntity
  8
LAYER_1
 62
     7
100
AcDbSpline
210
0.0
220
0.0
230
1.0
 70
     8
 71
     3
 72
    20
 73
    16
 74
     0
 42
0.0000000001
 43
0.0000000001
 40
0.0
 40
0.0
 40
0.0
 40
0.0
 40
1.0
 40
1.0
 40
1.0
 40
2.0
 40
2.0
 40
2.0
 40
3.0
 40
3.0
 40
3.0
 40
4.0
 40
4.0
 40
4.0
 40
5.0
 40
5.0
 40
5.0
 40
5.0
 10
62.23427190284421
 20
-212.7546277679919
 30
0.0
 10
62.23427190284421
 20
-212.7546277679919
 30
0.0
 10
62.23427190284421
 20
-209.6392279206805
 30
0.0
 10
62.23427190284421
 20
-209.6392279206805
 30
0.0
 10
62.23427190284421
 20
-209.6392279206805
 30
0.0
 10
62.8795382872315
 20
-209.6392279206805
 30
0.0
 10
63.44694551365215
 20
-209.6392279206805
 30
0.0
 10
64.01400823052428
 20
-209.6392279206805
 30
0.0
 10
64.26446667230194
 20
-210.1646049821811
 30
0.0
 10
64.26446667230194
 20
-210.5466660714953
 30
0.0
 10
64.26446667230194
 20
-210.9287271608095
 30
0.0
 10
63.90583223228743
 20
-211.3783121216346
 30
0.0
 10
63.43385415080821
 20
-211.3783121216346
 30
0.0
 10
62.96187606932898
 20
-211.3783121216346
 30
0.0
 10
62.23427190284421
 20
-211.3610866442083
 30
0.0
 10
62.23427190284421
 20
-211.3610866442083
 30
0.0
  0
SPLINE
  5
8E
330
1F
100
AcDbEntity
  8
LAYER_1
 62
     7
100
AcDbSpline
210
0.0
220
0.0
230
1.0
 70
     8
 71
     3
 72
    23
 73
    19
 74
     0
 42
0.0000000001
 43
0.0000000001
 40
0.0
 40
0.0
 40
0.0
 40
0.0
 40
1.0
 40
1.0
 40
1.0
 40
2.0
 40
2.0
 40
2.0
 40
3.0
 40
3.0
 40
3.0
 40
4.0
 40
4.0
 40
4.0
 40
5.0
 40
5.0
 40
5.0
 40
6.0
 40
6.0
 40
6.0
 40
6.0
 10
56.37795408746801
 20
-210.0044080421169
 30
0.0
 10
56.37795408746801
 20
-210.0044080421169
 30
0.0
 10
56.14075926330856
 20
-209.6454290925539
 30
0.0
 10
55.47309975826715
 20
-209.6454290925539
 30
0.0
 10
54.80561250799999
 20
-209.6454290925539
 30
0.0
 10
54.58598767081531
 20
-210.2073241661982
 30
0.0
 10
54.58598767081531
 20
-210.453303983845
 30
0.0
 10
54.58598767081531
 20
-210.6992838014918
 30
0.0
 10
54.72982040732449
 20
-211.156103462836
 30
0.0
 10
55.48188475175453
 20
-211.2263834107351
 30
0.0
 10
56.09683429587163
 20
-211.2839165053388
 30
0.0
 10
56.46580402234189
 20
-211.5075032023315
 30
0.0
 10
56.46580402234189
 20
-212.0697427855242
 30
0.0
 10
56.46580402234189
 20
-212.5613579112694
 30
0.0
 10
56.03826767262238
 20
-212.7546277679919
 30
0.0
 10
55.48188475175453
 20
-212.7546277679919
 30
0.0
 10
54.81439750148738
 20
-212.7546277679919
 30
0.0
 10
54.48056774896666
 20
-212.4032280284964
 30
0.0
 10
54.48056774896666
 20
-212.4032280284964
 30
0.0
  0
POLYLINE
  5
8F
330
1F
100
AcDbEntity
  8
LAYER_1
 62
     7
100
AcDb2dPolyline
 66
     1
 10
0.0
 20
0.0
 30
0.0
  0
VERTEX
  5
90
330
8F
100
AcDbEntity
  8
LAYER_1
 62
     7
100
AcDbVertex
100
AcDb2dVertex
 10
56.83460149403788
 20
-209.6454290925539
 30
0.0
  0
VERTEX
  5
91
330
8F
100
AcDbEntity
  8
LAYER_1
 62
     7
100
AcDbVertex
100
AcDb2dVertex
 10
57.97647839262394
 20
-209.6454290925539
 30
0.0
  0
VERTEX
  5
92
330
8F
100
AcDbEntity
  8
LAYER_1
 62
     7
100
AcDbVertex
100
AcDb2dVertex
 10
59.11835529120999
 20
-209.6454290925539
 30
0.0
  0
SEQEND
  5
93
330
8F
100
AcDbEntity
  8
LAYER_1
  0
POLYLINE
  5
94
330
1F
100
AcDbEntity
  8
LAYER_1
 62
     7
100
AcDb2dPolyline
 66
     1
 10
0.0
 20
0.0
 30
0.0
  0
VERTEX
  5
95
330
94
100
AcDbEntity
  8
LAYER_1
 62
     7
100
AcDbVertex
100
AcDb2dVertex
 10
57.97647839262394
 20
-212.7546277679919
 30
0.0
  0
VERTEX
  5
96
330
94
100
AcDbEntity
  8
LAYER_1
 62
     7
100
AcDbVertex
100
AcDb2dVertex
 10
57.97647839262394
 20
-209.6454290925539
 30
0.0
  0
SEQEND
  5
97
330
94
100
AcDbEntity
  8
LAYER_1
  0
POLYLINE
  5
98
330
1F
100
AcDbEntity
  8
LAYER_1
 62
     7
100
AcDb2dPolyline
 66
     1
 10
0.0
 20
0.0
 30
0.0
  0
VERTEX
  5
99
330
98
100
AcDbEntity
  8
LAYER_1
 62
     7
100
AcDbVertex
100
AcDb2dVertex
 10
61.50770126500502
 20
-209.6454290925539
 30
0.0
  0
VERTEX
  5
9A
330
98
100
AcDbEntity
  8
LAYER_1
 62
     7
100
AcDbVertex
100
AcDb2dVertex
 10
59.66302488742799
 20
-209.6454290925539
 30
0.0
  0
VERTEX
  5
9B
330
98
100
AcDbEntity
  8
LAYER_1
 62
     7
100
AcDbVertex
100
AcDb2dVertex
 10
59.66302488742799
 20
-212.7546277679919
 30
0.0
  0
VERTEX
  5
9C
330
98
100
AcDbEntity
  8
LAYER_1
 62
     7
100
AcDbVertex
100
AcDb2dVertex
 10
61.50770126500502
 20
-212.7546277679919
 30
0.0
  0
SEQEND
  5
9D
330
98
100
AcDbEntity
  8
LAYER_1
  0
POLYLINE
  5
9E
330
1F
100
AcDbEntity
  8
LAYER_1
 62
     7
100
AcDb2dPolyline
 66
     1
 10
0.0
 20
0.0
 30
0.0
  0
VERTEX
  5
9F
330
9E
100
AcDbEntity
  8
LAYER_1
 62
     7
100
AcDbVertex
100
AcDb2dVertex
 10
61.33200139525728
 20
-211.1998561754987
 30
0.0
  0
VERTEX
  5
A0
330
9E
100
AcDbEntity
  8
LAYER_1
 62
     7
100
AcDbVertex
100
AcDb2dVertex
 10
59.66302488742799
 20
-211.1998561754987
 30
0.0
  0
SEQEND
  5
A1
330
9E
100
AcDbEntity
  8
LAYER_1
  0
POLYLINE
  5
A2
330
1F
100
AcDbEntity
  8
LAYER_1
 62
     7
100
AcDb2dPolyline
 66
     1
 10
0.0
 20
0.0
 30
0.0
  0
VERTEX
  5
A3
330
A2
100
AcDbEntity
  8
LAYER_1
 62
     7
100
AcDbVertex
100
AcDb2dVertex
 10
66.41041665006406
 20
-210.2627902035107
 30
0.0
  0
VERTEX
  5
A4
330
A2
100
AcDbEntity
  8
LAYER_1
 62
     7
100
AcDbVertex
100
AcDb2dVertex
 10
67.09392359433764
 20
-209.6454290925539
 30
0.0
  0
VERTEX
  5
A5
330
A2
100
AcDbEntity
  8
LAYER_1
 62
     7
100
AcDbVertex
100
AcDb2dVertex
 10
67.09392359433764
 20
-212.7546277679919
 30
0.0
  0
SEQEND
  5
A6
330
A2
100
AcDbEntity
  8
LAYER_1
  0
SPLINE
  5
A7
330
1F
100
AcDbEntity
  8
LAYER_1
 62
     7
100
AcDbSpline
210
0.0
220
0.0
230
1.0
 70
     8
 71
     3
 72
    23
 73
    19
 74
     0
 42
0.0000000001
 43
0.0000000001
 40
0.0
 40
0.0
 40
0.0
 40
0.0
 40
1.0
 40
1.0
 40
1.0
 40
2.0
 40
2.0
 40
2.0
 40
3.0
 40
3.0
 40
3.0
 40
4.0
 40
4.0
 40
4.0
 40
5.0
 40
5.0
 40
5.0
 40
6.0
 40
6.0
 40
6.0
 40
6.0
 10
68.50055608096514
 20
-210.2166259240084
 30
0.0
 10
68.57083602886424
 20
-209.880384604648
 30
0.0
 10
68.8750379602118
 20
-209.6275145960306
 30
0.0
 10
69.2405625911968
 20
-209.6275145960306
 30
0.0
 10
69.65776365446057
 20
-209.6275145960306
 30
0.0
 10
69.99572752156357
 20
-209.9578992530661
 30
0.0
 10
69.99572752156357
 20
-210.3654540489711
 30
0.0
 10
69.99572752156357
 20
-210.7726643353277
 30
0.0
 10
69.65776365446057
 20
-211.1030489923631
 30
0.0
 10
69.2405625911968
 20
-211.1030489923631
 30
0.0
 10
69.69014755202191
 20
-211.1030489923631
 30
0.0
 10
70.05463865436134
 20
-211.4754638143186
 30
0.0
 10
70.05463865436134
 20
-211.935039552051
 30
0.0
 10
70.05463865436134
 20
-212.3939262706863
 30
0.0
 10
69.69014755202191
 20
-212.7663410926418
 30
0.0
 10
69.2405625911968
 20
-212.7663410926418
 30
0.0
 10
68.83042397367781
 20
-212.7663410926418
 30
0.0
 10
68.49142657792923
 20
-212.4566270085178
 30
0.0
 10
68.43458250242261
 20
-212.0545843653891
 30
0.0
  0
POLYLINE
  5
A8
330
1F
100
AcDbEntity
  8
LAYER_1
 62
     7
100
AcDb2dPolyline
 66
     1
 10
0.0
 20
0.0
 30
0.0
  0
VERTEX
  5
A9
330
A8
100
AcDbEntity
  8
LAYER_1
 62
     7
100
AcDbVertex
100
AcDb2dVertex
 10
106.7814235844158
 20
-196.8775607146695
 30
0.0
  0
VERTEX
  5
AA
330
A8
100
AcDbEntity
  8
LAYER_1
 62
     7
100
AcDbVertex
100
AcDb2dVertex
 10
108.7244574380967
 20
-200.5596787693045
 30
0.0
  0
VERTEX
  5
AB
330
A8
100
AcDbEntity
  8
LAYER_1
 62
     7
100
AcDbVertex
100
AcDb2dVertex
 10
108.7244574380967
 20
-203.1648599752505
 30
0.0
  0
SEQEND
  5
AC
330
A8
100
AcDbEntity
  8
LAYER_1
  0
POLYLINE
  5
AD
330
1F
100
AcDbEntity
  8
LAYER_1
 62
     7
100
AcDb2dPolyline
 66
     1
 10
0.0
 20
0.0
 30
0.0
  0
VERTEX
  5
AE
330
AD
100
AcDbEntity
  8
LAYER_1
 62
     7
100
AcDbVertex
100
AcDb2dVertex
 10
110.5296874723676
 20
-196.8775607146695
 30
0.0
  0
VERTEX
  5
AF
330
AD
100
AcDbEntity
  8
LAYER_1
 62
     7
100
AcDbVertex
100
AcDb2dVertex
 10
108.7244574380967
 20
-200.5596787693045
 30
0.0
  0
SEQEND
  5
B0
330
AD
100
AcDbEntity
  8
LAYER_1
  0
SPLINE
  5
B1
330
1F
100
AcDbEntity
  8
LAYER_1
 62
     7
100
AcDbSpline
210
0.0
220
0.0
230
1.0
 70
    11
 71
     3
 72
   104
 73
   100
 74
     0
 42
0.0000000001
 43
0.0000000001
 40
0.0
 40
0.0
 40
0.0
 40
0.0
 40
1.0
 40
1.0
 40
1.0
 40
2.0
 40
2.0
 40
2.0
 40
3.0
 40
3.0
 40
3.0
 40
4.0
 40
4.0
 40
4.0
 40
5.0
 40
5.0
 40
5.0
 40
6.0
 40
6.0
 40
6.0
 40
7.0
 40
7.0
 40
7.0
 40
8.0
 40
8.0
 40
8.0
 40
9.0
 40
9.0
 40
9.0
 40
10.0
 40
10.0
 40
10.0
 40
11.0
 40
11.0
 40
11.0
 40
12.0
 40
12.0
 40
12.0
 40
13.0
 40
13.0
 40
13.0
 40
14.0
 40
14.0
 40
14.0
 40
15.0
 40
15.0
 40
15.0
 40
16.0
 40
16.0
 40
16.0
 40
17.0
 40
17.0
 40
17.0
 40
18.0
 40
18.0
 40
18.0
 40
19.0
 40
19.0
 40
19.0
 40
20.0
 40
20.0
 40
20.0
 40
21.0
 40
21.0
 40
21.0
 40
22.0
 40
22.0
 40
22.0
 40
23.0
 40
23.0
 40
23.0
 40
24.0
 40
24.0
 40
24.0
 40
25.0
 40
25.0
 40
25.0
 40
26.0
 40
26.0
 40
26.0
 40
27.0
 40
27.0
 40
27.0
 40
28.0
 40
28.0
 40
28.0
 40
29.0
 40
29.0
 40
29.0
 40
30.0
 40
30.0
 40
30.0
 40
31.0
 40
31.0
 40
31.0
 40
32.0
 40
32.0
 40
32.0
 40
33.0
 40
33.0
 40
33.0
 40
33.0
 10
49.63211261780031
 20
-231.0859808450063
 30
0.0
 10
49.63211261780031
 20
-231.0859808450063
 30
0.0
 10
33.54058837052111
 20
-231.0859808450063
 30
0.0
 10
33.54058837052111
 20
-231.0859808450063
 30
0.0
 10
31.88384195166446
 20
-231.0859808450063
 30
0.0
 10
30.54059922196555
 20
-229.7492837967293
 30
0.0
 10
30.54059922196555
 20
-228.0921928683242
 30
0.0
 10
30.54059922196555
 20
-228.0921928683242
 30
0.0
 10
30.53267550234947
 20
-205.6198350180395
 30
0.0
 10
30.53267550234947
 20
-205.6198350180395
 30
0.0
 10
30.53267550234947
 20
-205.6198350180395
 30
0.0
 10
30.53267550234947
 20
-195.1908419650912
 30
0.0
 10
30.53267550234947
 20
-194.0863443525201
 30
0.0
 10
30.53267550234947
 20
-194.0863443525201
 30
0.0
 10
30.53267550234947
 20
-69.08673907778041
 30
0.0
 10
30.53267550234947
 20
-69.08673907778041
 30
0.0
 10
30.53267550234947
 20
-67.42999265892375
 30
0.0
 10
31.86937255062641
 20
-66.08674992922484
 30
0.0
 10
33.52646347903158
 20
-66.08674992922484
 30
0.0
 10
33.52646347903158
 20
-66.08674992922484
 30
0.0
 10
56.03292777462024
 20
-66.08674992922484
 30
0.0
 10
56.03292777462024
 20
-66.08674992922484
 30
0.0
 10
57.68967419347689
 20
-66.08674992922484
 30
0.0
 10
59.0329169231758
 20
-67.42999265892375
 30
0.0
 10
59.0329169231758
 20
-69.08673907778041
 30
0.0
 10
59.0329169231758
 20
-69.08673907778041
 30
0.0
 10
59.0329169231758
 20
-186.08683263577
 30
0.0
 10
59.0329169231758
 20
-186.08683263577
 30
0.0
 10
59.0329169231758
 20
-186.08683263577
 30
0.0
 10
177.0327771909849
 20
-186.08683263577
 30
0.0
 10
177.0327771909849
 20
-186.08683263577
 30
0.0
 10
178.1376193131045
 20
-186.08683263577
 30
0.0
 10
179.0326551201724
 20
-186.9822129523864
 30
0.0
 10
179.0326551201724
 20
-188.0867105649575
 30
0.0
 10
179.0326551201724
 20
-188.0867105649575
 30
0.0
 10
179.0326551201724
 20
-207.6159233421932
 30
0.0
 10
179.0326551201724
 20
-207.6159233421932
 30
0.0
 10
179.0326551201724
 20
-208.7204209547643
 30
0.0
 10
178.1376193131045
 20
-209.6158012713808
 30
0.0
 10
177.0327771909849
 20
-209.6158012713808
 30
0.0
 10
177.0327771909849
 20
-209.6158012713808
 30
0.0
 10
144.0325520473252
 20
-209.6158012713808
 30
0.0
 10
144.0325520473252
 20
-209.6158012713808
 30
0.0
 10
144.0325520473252
 20
-209.6158012713808
 30
0.0
 10
144.0325520473252
 20
-231.0866698641034
 30
0.0
 10
144.0325520473252
 20
-231.0866698641034
 30
0.0
 10
144.0325520473252
 20
-231.0866698641034
 30
0.0
 10
123.4098659630712
 20
-231.0866698641034
 30
0.0
 10
123.4098659630712
 20
-231.0866698641034
 30
0.0
 10
123.4098659630712
 20
-231.0866698641034
 30
0.0
 10
123.4098659630712
 20
-220.6866156132311
 30
0.0
 10
123.4098659630712
 20
-220.6866156132311
 30
0.0
 10
123.4098659630712
 20
-220.6866156132311
 30
0.0
 10
114.4098985174045
 20
-220.6866156132311
 30
0.0
 10
114.4098985174045
 20
-220.6866156132311
 30
0.0
 10
114.4098985174045
 20
-220.6866156132311
 30
0.0
 10
114.4098985174045
 20
-212.6867593869325
 30
0.0
 10
114.4098985174045
 20
-212.6867593869325
 30
0.0
 10
114.4098985174045
 20
-212.6867593869325
 30
0.0
 10
102.4101141779565
 20
-212.6867593869325
 30
0.0
 10
102.4101141779565
 20
-212.6867593869325
 30
0.0
 10
102.4101141779565
 20
-212.6867593869325
 30
0.0
 10
102.4101141779565
 20
-220.6866156132311
 30
0.0
 10
102.4101141779565
 20
-220.6866156132311
 30
0.0
 10
102.4101141779565
 20
-220.6866156132311
 30
0.0
 10
93.41014673228983
 20
-220.6866156132311
 30
0.0
 10
93.41014673228983
 20
-220.6866156132311
 30
0.0
 10
93.41014673228983
 20
-220.6866156132311
 30
0.0
 10
93.41014673228983
 20
-231.0866698641034
 30
0.0
 10
93.41014673228983
 20
-231.0866698641034
 30
0.0
 10
93.41014673228983
 20
-231.0866698641034
 30
0.0
 10
71.83971488004354
 20
-231.0866698641034
 30
0.0
 10
71.83971488004354
 20
-231.0866698641034
 30
0.0
 10
71.83971488004354
 20
-231.0866698641034
 30
0.0
 10
71.83971488004354
 20
-224.0862358380757
 30
0.0
 10
71.83971488004354
 20
-224.0862358380757
 30
0.0
 10
71.83971488004354
 20
-224.0862358380757
 30
0.0
 10
67.83961451211997
 20
-224.0862358380757
 30
0.0
 10
67.83961451211997
 20
-224.0862358380757
 30
0.0
 10
67.83961451211997
 20
-224.0862358380757
 30
0.0
 10
67.83961451211997
 20
-216.0867241213255
 30
0.0
 10
67.83961451211997
 20
-216.0867241213255
 30
0.0
 10
67.83961451211997
 20
-216.0867241213255
 30
0.0
 10
55.83965791789772
 20
-216.0867241213255
 30
0.0
 10
55.83965791789772
 20
-216.0867241213255
 30
0.0
 10
55.83965791789772
 20
-216.0867241213255
 30
0.0
 10
55.83965791789772
 20
-224.0862358380757
 30
0.0
 10
55.83965791789772
 20
-224.0862358380757
 30
0.0
 10
55.83965791789772
 20
-224.0862358380757
 30
0.0
 10
51.83955754997414
 20
-224.0862358380757
 30
0.0
 10
51.83955754997414
 20
-224.0862358380757
 30
0.0
 10
51.83955754997414
 20
-224.0862358380757
 30
0.0
 10
51.83955754997414
 20
-231.0866698641034
 30
0.0
 10
51.83955754997414
 20
-231.0866698641034
 30
0.0
 10
51.83955754997414
 20
-231.0866698641034
 30
0.0
 10
50.71042750468351
 20
-231.0866698641034
 30
0.0
 10
50.71042750468351
 20
-231.0866698641034
 30
0.0
 10
50.71042750468351
 20
-231.0866698641034
 30
0.0
 10
49.63211261780031
 20
-231.0859808450063
 30
0.0
 10
49.63211261780031
 20
-231.0859808450063
 30
0.0
  0
POLYLINE
  5
B2
330
1F
100
AcDbEntity
  8
LAYER_1
 62
     7
100
AcDb2dPolyline
 66
     1
 10
0.0
 20
0.0
 30
0.0
  0
VERTEX
  5
B3
330
B2
100
AcDbEntity
  8
LAYER_1
 62
     7
100
AcDbVertex
100
AcDb2dVertex
 10
166.8866264773756
 20
-190.8121256033386
 30
0.0
  0
VERTEX
  5
B4
330
B2
100
AcDbEntity
  8
LAYER_1
 62
     7
100
AcDbVertex
100
AcDb2dVertex
 10
166.8866264773756
 20
-194.2351724774829
 30
0.0
  0
SEQEND
  5
B5
330
B2
100
AcDbEntity
  8
LAYER_1
  0
SPLINE
  5
B6
330
1F
100
AcDbEntity
  8
LAYER_1
 62
     7
100
AcDbSpline
210
0.0
220
0.0
230
1.0
 70
     8
 71
     3
 72
    14
 73
    10
 74
     0
 42
0.0000000001
 43
0.0000000001
 40
0.0
 40
0.0
 40
0.0
 40
0.0
 40
1.0
 40
1.0
 40
1.0
 40
2.0
 40
2.0
 40
2.0
 40
3.0
 40
3.0
 40
3.0
 40
3.0
 10
169.1355848101467
 20
-194.3271565269391
 30
0.0
 10
169.1355848101467
 20
-194.3271565269391
 30
0.0
 10
169.1355848101467
 20
-192.4595702643851
 30
0.0
 10
169.1355848101467
 20
-192.0130858894968
 30
0.0
 10
169.1355848101467
 20
-191.5666015146084
 30
0.0
 10
168.7807399751659
 20
-191.0074625173523
 30
0.0
 10
168.1303059475508
 20
-191.0074625173523
 30
0.0
 10
167.4802164294841
 20
-191.0074625173523
 30
0.0
 10
166.8866264773756
 20
-191.4511908158525
 30
0.0
 10
166.8866264773756
 20
-191.94694005618
 30
0.0
  0
POLYLINE
  5
B7
330
1F
100
AcDbEntity
  8
LAYER_1
 62
     7
100
AcDb2dPolyline
 66
     1
 10
0.0
 20
0.0
 30
0.0
  0
VERTEX
  5
B8
330
B7
100
AcDbEntity
  8
LAYER_1
 62
     7
100
AcDbVertex
100
AcDb2dVertex
 10
155.7779160851875
 20
-190.9681884288205
 30
0.0
  0
VERTEX
  5
B9
330
B7
100
AcDbEntity
  8
LAYER_1
 62
     7
100
AcDbVertex
100
AcDb2dVertex
 10
155.7779160851875
 20
-194.126307460149
 30
0.0
  0
SEQEND
  5
BA
330
B7
100
AcDbEntity
  8
LAYER_1
  0
SPLINE
  5
BB
330
1F
100
AcDbEntity
  8
LAYER_1
 62
     7
100
AcDbSpline
210
0.0
220
0.0
230
1.0
 70
     8
 71
     3
 72
    20
 73
    16
 74
     0
 42
0.0000000001
 43
0.0000000001
 40
0.0
 40
0.0
 40
0.0
 40
0.0
 40
1.0
 40
1.0
 40
1.0
 40
2.0
 40
2.0
 40
2.0
 40
3.0
 40
3.0
 40
3.0
 40
4.0
 40
4.0
 40
4.0
 40
5.0
 40
5.0
 40
5.0
 40
5.0
 10
173.8377956379642
 20
-192.5143472826006
 30
0.0
 10
173.8377956379642
 20
-192.5143472826006
 30
0.0
 10
176.2634873691286
 20
-192.5143472826006
 30
0.0
 10
176.2634873691286
 20
-192.5143472826006
 30
0.0
 10
176.2634873691286
 20
-192.5143472826006
 30
0.0
 10
176.3537488708421
 20
-190.893085347242
 30
0.0
 10
175.0515027774177
 20
-190.893085347242
 30
0.0
 10
173.7496011935418
 20
-190.893085347242
 30
0.0
 10
173.8377956379642
 20
-192.4144395135284
 30
0.0
 10
173.8377956379642
 20
-192.7014159674497
 30
0.0
 10
173.8377956379642
 20
-192.988392421371
 30
0.0
 10
174.0041937499017
 20
-194.2014105417274
 30
0.0
 10
175.0515027774177
 20
-194.2014105417274
 30
0.0
 10
175.8834933371055
 20
-194.2014105417274
 30
0.0
 10
176.1518662754065
 20
-193.8072916182149
 30
0.0
 10
176.1518662754065
 20
-193.8072916182149
 30
0.0
  0
SPLINE
  5
BC
330
1F
100
AcDbEntity
  8
LAYER_1
 62
     7
100
AcDbSpline
210
0.0
220
0.0
230
1.0
 70
    11
 71
     3
 72
    23
 73
    19
 74
     0
 42
0.0000000001
 43
0.0000000001
 40
0.0
 40
0.0
 40
0.0
 40
0.0
 40
1.0
 40
1.0
 40
1.0
 40
2.0
 40
2.0
 40
2.0
 40
3.0
 40
3.0
 40
3.0
 40
4.0
 40
4.0
 40
4.0
 40
5.0
 40
5.0
 40
5.0
 40
6.0
 40
6.0
 40
6.0
 40
6.0
 10
151.1539089248851
 20
-194.126307460149
 30
0.0
 10
151.1539089248851
 20
-194.126307460149
 30
0.0
 10
151.1539089248851
 20
-189.3407253215885
 30
0.0
 10
151.1539089248851
 20
-189.3407253215885
 30
0.0
 10
151.1539089248851
 20
-189.3407253215885
 30
0.0
 10
152.0933864637128
 20
-189.3407253215885
 30
0.0
 10
152.9184868324301
 20
-189.3407253215885
 30
0.0
 10
153.7442762202445
 20
-189.3407253215885
 30
0.0
 10
154.1080783034869
 20
-190.1048475002169
 30
0.0
 10
154.1080783034869
 20
-190.6608859115362
 30
0.0
 10
154.1080783034869
 20
-190.6608859115362
 30
0.0
 10
154.1080783034869
 20
-192.892618766881
 30
0.0
 10
154.1080783034869
 20
-192.892618766881
 30
0.0
 10
154.1080783034869
 20
-193.4483126686518
 30
0.0
 10
153.5868353565686
 20
-194.1025363013008
 30
0.0
 10
152.8998833168098
 20
-194.1025363013008
 30
0.0
 10
152.2129312770509
 20
-194.1025363013008
 30
0.0
 10
151.1539089248851
 20
-194.126307460149
 30
0.0
 10
151.1539089248851
 20
-194.126307460149
 30
0.0
  0
POLYLINE
  5
BD
330
1F
100
AcDbEntity
  8
LAYER_1
 62
     7
100
AcDb2dPolyline
 66
     1
 10
0.0
 20
0.0
 30
0.0
  0
VERTEX
  5
BE
330
BD
100
AcDbEntity
  8
LAYER_1
 62
     7
100
AcDbVertex
100
AcDb2dVertex
 10
161.0475341394256
 20
-189.3000731948625
 30
0.0
  0
VERTEX
  5
BF
330
BD
100
AcDbEntity
  8
LAYER_1
 62
     7
100
AcDbVertex
100
AcDb2dVertex
 10
161.0475341394256
 20
-194.1921087839173
 30
0.0
  0
VERTEX
  5
C0
330
BD
100
AcDbEntity
  8
LAYER_1
 62
     7
100
AcDbVertex
100
AcDb2dVertex
 10
161.7975314265645
 20
-194.1921087839173
 30
0.0
  0
SEQEND
  5
C1
330
BD
100
AcDbEntity
  8
LAYER_1
  0
POLYLINE
  5
C2
330
1F
100
AcDbEntity
  8
LAYER_1
 62
     7
100
AcDb2dPolyline
 66
     1
 10
0.0
 20
0.0
 30
0.0
  0
VERTEX
  5
C3
330
C2
100
AcDbEntity
  8
LAYER_1
 62
     7
100
AcDbVertex
100
AcDb2dVertex
 10
160.4336181239541
 20
-191.0071180078038
 30
0.0
  0
VERTEX
  5
C4
330
C2
100
AcDbEntity
  8
LAYER_1
 62
     7
100
AcDbVertex
100
AcDb2dVertex
 10
162.1410074464439
 20
-191.0071180078038
 30
0.0
  0
SEQEND
  5
C5
330
C2
100
AcDbEntity
  8
LAYER_1
  0
SPLINE
  5
C6
330
1F
100
AcDbEntity
  8
LAYER_1
 62
     7
100
AcDbSpline
210
0.0
220
0.0
230
1.0
 70
     8
 71
     3
 72
    14
 73
    10
 74
     0
 42
0.0000000001
 43
0.0000000001
 40
0.0
 40
0.0
 40
0.0
 40
0.0
 40
1.0
 40
1.0
 40
1.0
 40
2.0
 40
2.0
 40
2.0
 40
3.0
 40
3.0
 40
3.0
 40
3.0
 10
162.9133978542369
 20
-191.478407070186
 30
0.0
 10
162.9133978542369
 20
-191.478407070186
 30
0.0
 10
163.0460340304191
 20
-191.0477701345297
 30
0.0
 10
164.1374402801462
 20
-191.0477701345297
 30
0.0
 10
165.2291910394219
 20
-191.0477701345297
 30
0.0
 10
165.1299722894467
 20
-191.775718810563
 30
0.0
 10
165.1299722894467
 20
-192.106447977147
 30
0.0
 10
165.1299722894467
 20
-192.4375216532795
 30
0.0
 10
165.1299722894467
 20
-194.091511995748
 30
0.0
 10
165.1299722894467
 20
-194.091511995748
 30
0.0
  0
SPLINE
  5
C7
330
1F
100
AcDbEntity
  8
LAYER_1
 62
     7
100
AcDbSpline
210
0.0
220
0.0
230
1.0
 70
     8
 71
     3
 72
    20
 73
    16
 74
     0
 42
0.0000000001
 43
0.0000000001
 40
0.0
 40
0.0
 40
0.0
 40
0.0
 40
1.0
 40
1.0
 40
1.0
 40
2.0
 40
2.0
 40
2.0
 40
3.0
 40
3.0
 40
3.0
 40
4.0
 40
4.0
 40
4.0
 40
5.0
 40
5.0
 40
5.0
 40
5.0
 10
165.1561550151346
 20
-192.6580077643355
 30
0.0
 10
165.1561550151346
 20
-192.6580077643355
 30
0.0
 10
164.1312391082728
 20
-192.6580077643355
 30
0.0
 10
163.6682182750552
 20
-192.6580077643355
 30
0.0
 10
163.2045084227406
 20
-192.6580077643355
 30
0.0
 10
162.9133978542369
 20
-192.9225910976027
 30
0.0
 10
162.9133978542369
 20
-193.3962917268246
 30
0.0
 10
162.9133978542369
 20
-193.7831759498181
 30
0.0
 10
163.1121798637359
 20
-194.1576578290648
 30
0.0
 10
163.6740749373801
 20
-194.1576578290648
 30
0.0
 10
164.0709499372809
 20
-194.1576578290648
 30
0.0
 10
164.1539767384754
 20
-194.1576578290648
 30
0.0
 10
164.4519774979495
 20
-194.1576578290648
 30
0.0
 10
164.7492892383266
 20
-194.1576578290648
 30
0.0
 10
165.1299722894467
 20
-193.7831759498181
 30
0.0
 10
165.1299722894467
 20
-193.2205918570768
 30
0.0
  0
POLYLINE
  5
C8
330
1F
100
AcDbEntity
  8
LAYER_1
 62
     7
100
AcDb2dPolyline
 66
     1
 10
0.0
 20
0.0
 30
0.0
  0
VERTEX
  5
C9
330
C8
100
AcDbEntity
  8
LAYER_1
 62
     7
100
AcDbVertex
100
AcDb2dVertex
 10
145.2255886138672
 20
-189.1767387764905
 30
0.0
  0
VERTEX
  5
CA
330
C8
100
AcDbEntity
  8
LAYER_1
 62
     7
100
AcDbVertex
100
AcDb2dVertex
 10
146.8058539129513
 20
-192.1712157722697
 30
0.0
  0
VERTEX
  5
CB
330
C8
100
AcDbEntity
  8
LAYER_1
 62
     7
100
AcDbVertex
100
AcDb2dVertex
 10
146.8058539129513
 20
-194.2902940052469
 30
0.0
  0
SEQEND
  5
CC
330
C8
100
AcDbEntity
  8
LAYER_1
  0
POLYLINE
  5
CD
330
1F
100
AcDbEntity
  8
LAYER_1
 62
     7
100
AcDb2dPolyline
 66
     1
 10
0.0
 20
0.0
 30
0.0
  0
VERTEX
  5
CE
330
CD
100
AcDbEntity
  8
LAYER_1
 62
     7
100
AcDbVertex
100
AcDb2dVertex
 10
148.2738090992163
 20
-189.1767387764905
 30
0.0
  0
VERTEX
  5
CF
330
CD
100
AcDbEntity
  8
LAYER_1
 62
     7
100
AcDbVertex
100
AcDb2dVertex
 10
146.8058539129513
 20
-192.1712157722697
 30
0.0
  0
SEQEND
  5
D0
330
CD
100
AcDbEntity
  8
LAYER_1
  0
SPLINE
  5
D1
330
1F
100
AcDbEntity
  8
LAYER_1
 62
     7
100
AcDbSpline
210
0.0
220
0.0
230
1.0
 70
     8
 71
     3
 72
    23
 73
    19
 74
     0
 42
0.0000000001
 43
0.0000000001
 40
0.0
 40
0.0
 40
0.0
 40
0.0
 40
1.0
 40
1.0
 40
1.0
 40
2.0
 40
2.0
 40
2.0
 40
3.0
 40
3.0
 40
3.0
 40
4.0
 40
4.0
 40
4.0
 40
5.0
 40
5.0
 40
5.0
 40
6.0
 40
6.0
 40
6.0
 40
6.0
 10
159.4665798212445
 20
-191.3302679643202
 30
0.0
 10
159.4665798212445
 20
-191.3302679643202
 30
0.0
 10
159.1837374819055
 20
-190.9681884288205
 30
0.0
 10
158.3882649343613
 20
-190.9681884288205
 30
0.0
 10
157.5931368963656
 20
-190.9681884288205
 30
0.0
 10
157.3316541490352
 20
-191.3502495181347
 30
0.0
 10
157.3316541490352
 20
-191.782264491985
 30
0.0
 10
157.3316541490352
 20
-192.2142794658353
 30
0.0
 10
157.6017496350787
 20
-192.5615450907485
 30
0.0
 10
158.398600220817
 20
-192.5615450907485
 30
0.0
 10
159.1954508065553
 20
-192.5615450907485
 30
0.0
 10
159.5709662144475
 20
-192.7544704379225
 30
0.0
 10
159.5709662144475
 20
-193.3387586322209
 30
0.0
 10
159.5709662144475
 20
-193.9230468265193
 30
0.0
 10
159.1172471390401
 20
-194.1573133195162
 30
0.0
 10
158.4540662581296
 20
-194.1573133195162
 30
0.0
 10
157.6585937105854
 20
-194.1573133195162
 30
0.0
 10
157.2059081638235
 20
-193.74769146632
 30
0.0
 10
157.2059081638235
 20
-193.74769146632
 30
0.0
  0
SPLINE
  5
D2
330
1F
100
AcDbEntity
  8
LAYER_1
 62
     7
100
AcDbSpline
210
0.0
220
0.0
230
1.0
 70
     8
 71
     3
 72
    17
 73
    13
 74
     0
 42
0.0000000001
 43
0.0000000001
 40
0.0
 40
0.0
 40
0.0
 40
0.0
 40
1.0
 40
1.0
 40
1.0
 40
2.0
 40
2.0
 40
2.0
 40
3.0
 40
3.0
 40
3.0
 40
4.0
 40
4.0
 40
4.0
 40
4.0
 10
172.8986626086851
 20
-191.409505160481
 30
0.0
 10
172.8986626086851
 20
-191.409505160481
 30
0.0
 10
172.6561278865235
 20
-191.0074625173523
 30
0.0
 10
171.8403292756163
 20
-191.0074625173523
 30
0.0
 10
171.0245306647091
 20
-191.0074625173523
 30
0.0
 10
170.6056070537028
 20
-191.5004556812916
 30
0.0
 10
170.6056070537028
 20
-192.5629231289426
 30
0.0
 10
170.6056070537028
 20
-193.6253905765937
 30
0.0
 10
171.1347737202371
 20
-194.1921087839173
 30
0.0
 10
171.9174994144859
 20
-194.1921087839173
 30
0.0
 10
172.3832763240917
 20
-194.1921087839173
 30
0.0
 10
172.7339870444901
 20
-193.8775715661139
 30
0.0
 10
172.8986626086851
 20
-193.6584634932521
 30
0.0
  0
ENDSEC
  0
SECTION
  2
OBJECTS
  0
DICTIONARY
  5
C
330
0
100
AcDbDictionary
  3
ACAD_GROUP
350
D
  3
ACAD_LAYOUT
350
1A
  3
ACAD_MLINESTYLE
350
17
  3
ACAD_PLOTSETTINGS
350
19
  3
ACAD_TABLESTYLE
350
D3
  3
ACAD_VISUALSTYLE
350
2A
1001
ACAD
1000
TREAT_AS_HARD
1070
     0
  0
DICTIONARY
  5
D
102
{ACAD_REACTORS
330
C
102
}
330
C
100
AcDbDictionary
1001
ACAD
1000
TREAT_AS_HARD
1070
     0
  0
DICTIONARY
  5
1A
102
{ACAD_REACTORS
330
C
102
}
330
C
100
AcDbDictionary
1001
ACAD
1000
TREAT_AS_HARD
1070
     0
  0
DICTIONARY
  5
17
102
{ACAD_REACTORS
330
C
102
}
330
C
100
AcDbDictionary
  3
STANDARD
350
18
1001
ACAD
1000
TREAT_AS_HARD
1070
     0
  0
DICTIONARY
  5
19
102
{ACAD_REACTORS
330
C
102
}
330
C
100
AcDbDictionary
1001
ACAD
1000
TREAT_AS_HARD
1070
     0
  0
DICTIONARY
  5
D3
102
{ACAD_REACTORS
330
C
102
}
330
C
100
AcDbDictionary
1001
ACAD
1000
TREAT_AS_HARD
1070
     0
  0
DICTIONARY
  5
2A
102
{ACAD_REACTORS
330
C
102
}
330
C
100
AcDbDictionary
  3
2DWIREFRAME
350
2F
  3
3D_HIDDEN
350
31
  3
3DWIREFRAME
350
30
  3
BASIC
350
32
  3
BRIGHTEN
350
36
  3
COLORCHANGE
350
3A
  3
CONCEPTUAL
350
34
  3
DIM
350
35
  3
FACEPATTERN
350
39
  3
FLAT
350
2B
  3
FLATWITHEDGES
350
2C
  3
GOURAUD
350
2D
  3
GOURAUDWITHEDGES
350
2E
  3
LINEPATTERN
350
38
  3
REALISTIC
350
33
  3
THICKEN
350
37
1001
ACAD
1000
TREAT_AS_HARD
1070
     0
  0
MLINESTYLE
  5
18
102
{ACAD_REACTORS
330
17
102
}
330
17
100
AcDbMlineStyle
  2
Standard
 70
     0
  3

 62
   256
 51
90.0
 52
90.0
 71
     2
 49
0.5
 62
   256
  6
BYLAYER
 49
-0.5
 62
   256
  6
BYLAYER
  0
VISUALSTYLE
  5
2F
102
{ACAD_REACTORS
330
2A
102
}
330
2A
100
AcDbVisualStyle
  2
2dWireframe
 70
     4
 71
     0
 72
     2
 73
     0
 90
        0
 40
-0.6
 41
-30.0
 62
     5
 63
     7
 74
     1
 91
        4
 64
     7
 65
   257
 75
     1
175
     1
 42
1.0
 92
        0
 66
   257
 43
1.0
 76
     1
 77
     6
 78
     2
 67
     7
 79
     5
170
     0
171
     0
290
     0
174
     0
 93
        1
 44
0.0
173
     0
291
     0
 45
0.0
1001
ACAD
1000
AcDbSavedByObjectVersion
1070
     0
  0
VISUALSTYLE
  5
31
102
{ACAD_REACTORS
330
2A
102
}
330
2A
100
AcDbVisualStyle
  2
3D Hidden
 70
     6
 71
     1
 72
     2
 73
     2
 90
        0
 40
-0.6
 41
-30.0
 62
     5
 63
     7
 74
     2
 91
        2
 64
     7
 65
   257
 75
     2
175
     1
 42
40.0
 92
        0
 66
   257
 43
1.0
 76
     1
 77
     6
 78
     2
 67
     7
 79
     3
170
     0
171
     0
290
     0
174
     0
 93
        1
 44
0.0
173
     0
291
     0
 45
0.0
1001
ACAD
1000
AcDbSavedByObjectVersion
1070
     0
  0
VISUALSTYLE
  5
30
102
{ACAD_REACTORS
330
2A
102
}
330
2A
100
AcDbVisualStyle
  2
3dWireframe
 70
     5
 71
     0
 72
     2
 73
     0
 90
        0
 40
-0.6
 41
-30.0
 62
     5
 63
     7
 74
     1
 91
        4
 64
     7
 65
   257
 75
     1
175
     1
 42
1.0
 92
        0
 66
   257
 43
1.0
 76
     1
 77
     6
 78
     2
 67
     7
 79
     5
170
     0
171
     0
290
     0
174
     0
 93
        1
 44
0.0
173
     0
291
     0
 45
0.0
1001
ACAD
1000
AcDbSavedByObjectVersion
1070
     0
  0
VISUALSTYLE
  5
32
102
{ACAD_REACTORS
330
2A
102
}
330
2A
100
AcDbVisualStyle
  2
Basic
 70
     7
 71
     1
 72
     0
 73
     1
 90
        0
 40
-0.6
 41
-30.0
 62
     5
 63
     7
 74
     0
 91
        4
 64
     7
 65
   257
 75
     1
175
     1
 42
1.0
 92
        8
 66
     7
 43
1.0
 76
     1
 77
     6
 78
     2
 67
     7
 79
     5
170
     0
171
     0
290
     0
174
     0
 93
        1
 44
0.0
173
     0
291
     1
 45
0.0
1001
ACAD
1000
AcDbSavedByObjectVersion
1070
     0
  0
VISUALSTYLE
  5
36
102
{ACAD_REACTORS
330
2A
102
}
330
2A
100
AcDbVisualStyle
  2
Brighten
 70
    12
 71
     2
 72
     2
 73
     0
 90
        0
 40
-0.6
 41
-30.0
 62
     5
 63
     7
 74
     1
 91
        4
 64
     7
 65
   257
 75
     1
175
     1
 42
1.0
 92
        8
 66
     7
 43
1.0
 76
     1
 77
     6
 78
     2
 67
     7
 79
     5
170
     0
171
     0
290
     0
174
     0
 93
        1
 44
50.0
173
     0
291
     1
 45
0.0
1001
ACAD
1000
AcDbSavedByObjectVersion
1070
     0
  0
VISUALSTYLE
  5
3A
102
{ACAD_REACTORS
330
2A
102
}
330
2A
100
AcDbVisualStyle
  2
ColorChange
 70
    16
 71
     2
 72
     2
 73
     3
 90
        0
 40
-0.6
 41
-30.0
 62
     5
 63
     8
 74
     1
 91
        4
 64
     7
 65
   257
 75
     1
175
     1
 42
1.0
 92
        8
 66
     8
 43
1.0
 76
     1
 77
     6
 78
     2
 67
     7
 79
     5
170
     0
171
     0
290
     0
174
     0
 93
        1
 44
0.0
173
     0
291
     1
 45
0.0
1001
ACAD
1000
AcDbSavedByObjectVersion
1070
     0
  0
VISUALSTYLE
  5
34
102
{ACAD_REACTORS
330
2A
102
}
330
2A
100
AcDbVisualStyle
  2
Conceptual
 70
     9
 71
     3
 72
     2
 73
     0
 90
        0
 40
-0.6
 41
-30.0
 62
     5
 63
     7
 74
     2
 91
        2
 64
     7
 65
   257
 75
     1
175
     1
 42
40.0
 92
        8
 66
     7
 43
1.0
 76
     1
 77
     6
 78
     2
 67
     7
 79
     3
170
     0
171
     0
290
     0
174
     0
 93
        1
 44
0.0
173
     0
291
     0
 45
0.0
1001
ACAD
1000
AcDbSavedByObjectVersion
1070
     0
  0
VISUALSTYLE
  5
35
102
{ACAD_REACTORS
330
2A
102
}
330
2A
100
AcDbVisualStyle
  2
Dim
 70
    11
 71
     2
 72
     2
 73
     0
 90
        0
 40
-0.6
 41
-30.0
 62
     5
 63
     7
 74
     1
 91
        4
 64
     7
 65
   257
 75
     1
175
     1
 42
1.0
 92
        8
 66
     7
 43
1.0
 76
     1
 77
     6
 78
     2
 67
     7
 79
     5
170
     0
171
     0
290
     0
174
     0
 93
        1
 44
-50.0
173
     0
291
     1
 45
0.0
1001
ACAD
1000
AcDbSavedByObjectVersion
1070
     0
  0
VISUALSTYLE
  5
39
102
{ACAD_REACTORS
330
2A
102
}
330
2A
100
AcDbVisualStyle
  2
Facepattern
 70
    15
 71
     2
 72
     2
 73
     0
 90
        0
 40
-0.6
 41
-30.0
 62
     5
 63
     7
 74
     1
 91
        4
 64
     7
 65
   257
 75
     1
175
     1
 42
1.0
 92
        8
 66
     7
 43
1.0
 76
     1
 77
     6
 78
     2
 67
     7
 79
     5
170
     0
171
     0
290
     0
174
     0
 93
        1
 44
0.0
173
     0
291
     1
 45
0.0
1001
ACAD
1000
AcDbSavedByObjectVersion
1070
     0
  0
VISUALSTYLE
  5
2B
102
{ACAD_REACTORS
330
2A
102
}
330
2A
100
AcDbVisualStyle
  2
Flat
 70
     0
 71
     2
 72
     1
 73
     1
 90
        2
 40
-0.6
 41
30.0
 62
     5
 63
     7
 74
     0
 91
        4
 64
     7
 65
   257
 75
     1
175
     1
 42
1.0
 92
        8
 66
     7
 43
1.0
 76
     1
 77
     6
 78
     2
 67
     7
 79
     5
170
     0
171
     0
290
     0
174
     0
 93
       13
 44
0.0
173
     0
291
     1
 45
0.0
1001
ACAD
1000
AcDbSavedByObjectVersion
1070
     0
  0
VISUALSTYLE
  5
2C
102
{ACAD_REACTORS
330
2A
102
}
330
2A
100
AcDbVisualStyle
  2
FlatWithEdges
 70
     1
 71
     2
 72
     1
 73
     1
 90
        2
 40
-0.6
 41
30.0
 62
     5
 63
     7
 74
     1
 91
        4
 64
     7
 65
   257
 75
     1
175
     1
 42
1.0
 92
        0
 66
   257
 43
1.0
 76
     1
 77
     6
 78
     2
 67
     7
 79
     5
170
     0
171
     0
290
     0
174
     0
 93
       13
 44
0.0
173
     0
291
     1
 45
0.0
1001
ACAD
1000
AcDbSavedByObjectVersion
1070
     0
  0
VISUALSTYLE
  5
2D
102
{ACAD_REACTORS
330
2A
102
}
330
2A
100
AcDbVisualStyle
  2
Gouraud
 70
     2
 71
     2
 72
     2
 73
     1
 90
        2
 40
-0.6
 41
30.0
 62
     5
 63
     7
 74
     0
 91
        4
 64
     7
 65
   257
 75
     1
175
     1
 42
1.0
 92
        0
 66
     7
 43
1.0
 76
     1
 77
     6
 78
     2
 67
     7
 79
     5
170
     0
171
     0
290
     0
174
     0
 93
       13
 44
0.0
173
     0
291
     1
 45
0.0
1001
ACAD
1000
AcDbSavedByObjectVersion
1070
     0
  0
VISUALSTYLE
  5
2E
102
{ACAD_REACTORS
330
2A
102
}
330
2A
100
AcDbVisualStyle
  2
GouraudWithEdges
 70
     3
 71
     2
 72
     2
 73
     1
 90
        2
 40
-0.6
 41
30.0
 62
     5
 63
     7
 74
     1
 91
        4
 64
     7
 65
   257
 75
     1
175
     1
 42
1.0
 92
        0
 66
   257
 43
1.0
 76
     1
 77
     6
 78
     2
 67
     7
 79
     5
170
     0
171
     0
290
     0
174
     0
 93
       13
 44
0.0
173
     0
291
     1
 45
0.0
1001
ACAD
1000
AcDbSavedByObjectVersion
1070
     0
  0
VISUALSTYLE
  5
38
102
{ACAD_REACTORS
330
2A
102
}
330
2A
100
AcDbVisualStyle
  2
Linepattern
 70
    14
 71
     2
 72
     2
 73
     0
 90
        0
 40
-0.6
 41
-30.0
 62
     5
 63
     7
 74
     1
 91
        4
 64
     7
 65
   257
 75
     7
175
     7
 42
1.0
 92
        8
 66
     7
 43
1.0
 76
     1
 77
     6
 78
     2
 67
     7
 79
     5
170
     0
171
     0
290
     0
174
     0
 93
        1
 44
0.0
173
     0
291
     1
 45
0.0
1001
ACAD
1000
AcDbSavedByObjectVersion
1070
     0
  0
VISUALSTYLE
  5
33
102
{ACAD_REACTORS
330
2A
102
}
330
2A
100
AcDbVisualStyle
  2
Realistic
 70
     8
 71
     2
 72
     2
 73
     0
 90
        0
 40
-0.6
 41
-30.0
 62
     5
 63
     7
 74
     1
 91
        0
 64
     7
 65
   257
 75
     1
175
     1
 42
1.0
 92
        8
 66
     8
 43
1.0
 76
     1
 77
     6
 78
     2
 67
     7
 79
     5
170
     0
171
     0
290
     0
174
     0
 93
       13
 44
0.0
173
     0
291
     0
 45
0.0
1001
ACAD
1000
AcDbSavedByObjectVersion
1070
     0
  0
VISUALSTYLE
  5
37
102
{ACAD_REACTORS
330
2A
102
}
330
2A
100
AcDbVisualStyle
  2
Thicken
 70
    13
 71
     2
 72
     2
 73
     0
 90
        0
 40
-0.6
 41
-30.0
 62
     5
 63
     7
 74
     1
 91
        4
 64
     7
 65
   257
 75
     1
175
     1
 42
1.0
 92
       12
 66
     7
 43
1.0
 76
     1
 77
     6
 78
     2
 67
     7
 79
     5
170
     0
171
     0
290
     0
174
     0
 93
        1
 44
0.0
173
     0
291
     1
 45
0.0
1001
ACAD
1000
AcDbSavedByObjectVersion
1070
     0
  0
ENDSEC
  0
EOF
